<svg width="60" height="60" viewBox="0 0 60 60" fill="none" xmlns="http://www.w3.org/2000/svg">
<path d="M7.5 13.125C6.46875 13.125 5.625 13.9688 5.625 15V17.5898L25.8398 34.1836C28.2656 36.1758 31.7461 36.1758 34.1719 34.1836L54.375 17.5898V15C54.375 13.9688 53.5312 13.125 52.5 13.125H7.5ZM5.625 24.8672V45C5.625 46.0312 6.46875 46.875 7.5 46.875H52.5C53.5312 46.875 54.375 46.0312 54.375 45V24.8672L37.7344 38.5312C33.2344 42.2227 26.7539 42.2227 22.2656 38.5312L5.625 24.8672ZM0 15C0 10.8633 3.36328 7.5 7.5 7.5H52.5C56.6367 7.5 60 10.8633 60 15V45C60 49.1367 56.6367 52.5 52.5 52.5H7.5C3.36328 52.5 0 49.1367 0 45V15Z" fill="#F1F2F6"/>
</svg>
