<svg width="1285" height="837" viewBox="0 0 1285 837" fill="none" xmlns="http://www.w3.org/2000/svg">
<g clip-path="url(#clip0_1_12)">
<path d="M930.704 192.162C922.235 195.885 913.743 199.62 905.858 204.538C902.274 206.762 898.837 209.221 895.153 211.246C891.188 213.447 886.976 215.11 882.797 216.889C871.266 221.799 860.068 227.517 849.279 234.006C850.212 221.42 848.448 207.745 841.226 197.934C840.164 196.48 838.984 195.125 837.699 193.883C832.588 188.943 825.343 187.666 820.322 183.346C823.377 177.75 830.162 172.669 834.778 168.395C839.765 163.798 844.94 159.439 850.302 155.317C861.018 147.069 872.428 139.847 884.392 133.74C891.985 129.864 899.916 126.399 908.295 125.216C909.351 124.968 910.454 125.071 911.451 125.509C912.754 126.258 913.226 127.944 913.541 129.455C915.102 137.006 915.899 144.757 917.202 152.367C917.841 156.278 918.708 160.145 919.797 163.946C921.197 168.442 922.813 172.861 924.638 177.188C926.668 182.175 928.69 187.167 930.704 192.162Z" fill="#FBBEBE"/>
<path d="M690.317 405.574C690.314 421.116 685.602 436.26 676.852 448.845C668.102 461.429 655.762 470.811 641.593 475.652C627.424 480.493 612.15 480.545 597.951 475.8C583.751 471.056 571.353 461.758 562.524 449.233C553.591 436.582 548.777 421.283 548.787 405.574C548.787 386.012 556.243 367.251 569.514 353.418C582.785 339.586 600.784 331.814 619.552 331.814C638.32 331.814 656.319 339.586 669.59 353.418C682.861 367.251 690.317 386.012 690.317 405.574Z" fill="#BE6F72"/>
<path d="M594.2 470.577C597.986 477.379 601.805 484.24 604.231 491.651C606.657 499.062 607.601 507.27 605.601 514.845C629.706 501.615 658.394 502.68 684.925 495.983C685.635 495.898 686.288 495.539 686.756 494.976C686.918 494.592 687.001 494.178 687.001 493.759C687.001 493.339 686.918 492.925 686.756 492.541C681.202 471.118 679.066 448.888 680.432 426.742L666.582 435.278C660.52 439.181 654.237 442.7 647.768 445.815C638.614 449.994 628.897 452.523 619.339 455.45C611.768 457.792 596.739 460.824 591.976 467.72C592.835 468.566 593.583 469.526 594.2 470.577Z" fill="#BE6F72"/>
<path d="M555.212 371.387C550.607 373.319 545.193 375.544 540.958 372.839C537.847 370.837 536.566 366.681 536.757 362.876C536.948 359.07 538.341 355.464 539.442 351.835C541.688 344.377 542.901 336.615 545.406 329.192C547.911 321.769 552 314.615 558.492 310.693C570.443 303.481 585.911 309.441 599.176 305.448C604.792 303.774 609.679 300.402 614.902 297.756C620.125 295.11 626 293.073 631.638 294.49C638.243 296.093 643.118 301.889 649.273 304.839C656.013 308.071 664.078 307.848 670.211 312.168C674.558 315.236 677.298 320.188 679.736 325.047C687.534 340.662 693.692 357.11 698.101 374.103C699.864 380.188 700.872 386.484 701.1 392.836C701.156 400.961 699.045 408.923 696.955 416.767L693.586 429.178C692.339 433.861 691.058 438.544 688.699 442.782C686.341 447.02 682.701 450.591 678.197 451.821C672.581 453.331 666.043 450.404 663.595 444.925C662.09 441.529 662.157 437.642 662.078 433.908C661.954 426.593 661.202 419.305 659.832 412.131C659.135 408.536 658.203 404.802 655.856 402.085C652.823 398.573 647.993 397.402 643.5 397.32C638.243 397.25 632.481 398.737 629.414 403.174C626.954 406.757 626.527 411.791 623.259 414.589C621.806 415.751 620.079 416.483 618.26 416.709C614.552 417.19 610.796 416.362 607.593 414.356C604.39 412.35 601.925 409.283 600.592 405.645C599.558 402.554 599.053 398.714 596.245 397.262C594.784 396.501 593.043 396.641 591.482 396.149C586.697 394.639 585.439 388.317 585.001 383.13C584.495 377.054 586.439 365.053 579.194 364.643C571.387 364.199 562.39 368.893 555.212 371.387Z" fill="#161616"/>
<path d="M572.184 451.341C569.691 452.594 566.961 454.057 565.984 456.75C565.602 457.804 565.535 458.963 565.187 460.04C563.603 464.805 557.425 465.742 554.235 469.535C552.796 471.452 551.828 473.707 551.416 476.103C549.285 485.552 549.974 495.454 553.392 504.483C554.383 507.344 555.91 509.971 557.885 512.21C563.592 518.275 573.431 518.158 580.541 514.025C587.652 509.892 592.56 502.645 596.728 495.292C598.937 491.592 600.784 487.669 602.243 483.584C603.524 479.43 604.438 475.162 604.972 470.835C607.466 453.963 610.723 435.254 609.6 418.149C606.23 417.926 599.794 417.681 596.817 419.882C593.088 422.645 594.122 428.218 592.774 432.257C589.584 441.974 580.328 447.103 572.184 451.341Z" fill="#161616"/>
<path d="M575.105 453.577C570.893 453.846 563.344 448.988 559.121 449.233C556.247 444.004 553.707 438.584 551.517 433.006C553.763 429.646 557.38 428.826 562.85 433.006C567.242 436.226 573.308 447.36 575.105 453.577Z" fill="#161616"/>
<path d="M638.602 268.592C634.031 271.109 631.2 271.226 628.942 270.722C626.685 270.219 622.203 272.561 622.203 272.561C582.608 286.68 581.047 293.342 581.047 293.342L626.887 276.471C635.704 272.444 635.873 273.86 635.873 273.86C642.612 280.463 651.194 275.991 651.194 275.991C651.194 275.991 663.067 270.137 659.573 264.506C656.08 258.874 643.185 266.121 638.602 268.592ZM657.698 267.538C657.698 267.538 654.328 276.904 642.208 275.382C642.208 275.382 636.255 274.469 638.771 269.844C638.771 269.844 651.127 264.435 654.395 264.822C657.664 265.208 657.664 267.585 657.664 267.585L657.698 267.538Z" fill="#E8E8F0"/>
<path opacity="0.1" d="M638.602 268.592C634.031 271.109 631.2 271.226 628.942 270.722C626.685 270.219 622.203 272.561 622.203 272.561C582.608 286.68 581.047 293.342 581.047 293.342L626.887 276.471C635.704 272.444 635.873 273.86 635.873 273.86C642.612 280.463 651.194 275.991 651.194 275.991C651.194 275.991 663.067 270.137 659.573 264.506C656.08 258.874 643.185 266.121 638.602 268.592ZM657.698 267.538C657.698 267.538 654.328 276.904 642.208 275.382C642.208 275.382 636.255 274.469 638.771 269.844C638.771 269.844 651.127 264.435 654.395 264.822C657.664 265.208 657.664 267.585 657.664 267.585L657.698 267.538Z" fill="black"/>
<path d="M641.118 242.483C634.267 242.717 632.84 248.056 632.84 248.056C631.468 249.762 630.665 251.886 630.549 254.109C630.434 256.332 631.013 258.534 632.2 260.384L620.035 272.994C617.73 273.921 615.749 275.554 614.351 277.677C614.351 277.677 587.64 302.264 588.034 304.5C588.034 304.5 592.392 306.841 620.035 280.581L627.291 273.884C627.291 273.884 628.897 261.368 640.231 258.991C640.231 258.991 641.354 259.506 641.95 256.72C642.585 255.384 643.432 254.168 644.454 253.125C645.96 251.674 647.97 242.237 641.118 242.483ZM643.039 250.948C643.039 250.948 639.366 260.829 634.132 257.973C628.897 255.116 633.986 248.524 633.986 248.524C643.062 239.322 643.039 250.948 643.039 250.948Z" fill="#E8E8F0"/>
<path opacity="0.1" d="M620.271 277.911C621.071 277.911 621.72 277.235 621.72 276.401C621.72 275.567 621.071 274.891 620.271 274.891C619.471 274.891 618.822 275.567 618.822 276.401C618.822 277.235 619.471 277.911 620.271 277.911Z" fill="black"/>
<path d="M747.03 228.644C742.802 226.323 738.412 224.334 733.899 222.697C727.9 220.923 721.735 219.824 715.511 219.418C695.847 217.467 676.123 216.335 656.338 216.023C652.845 216.023 649.273 215.941 645.96 217.194C643 218.378 640.318 220.21 638.097 222.568C634.248 226.403 631.19 231.016 629.111 236.126C628.443 237.406 628.243 238.895 628.549 240.317C628.999 241.675 630.796 242.577 631.818 241.617C629.203 243.813 627.282 246.778 626.305 250.127C625.327 253.476 625.338 257.054 626.336 260.396C624.777 261.246 623.455 262.501 622.497 264.039C621.538 265.577 620.977 267.347 620.866 269.177C629.033 270.753 637.439 270.328 645.42 267.936C643.039 267.304 640.579 269.634 640.433 272.186C640.449 273.468 640.805 274.721 641.461 275.806C642.117 276.89 643.048 277.765 644.151 278.333C646.379 279.432 648.833 279.938 651.295 279.808C660.809 279.808 670.065 276.448 679.556 276.014C686.812 275.675 694.293 277.045 701.224 274.844C709.266 272.245 716.444 264.88 724.733 266.414C731.349 267.643 735.663 274.048 739.976 279.41C746.873 287.968 755.398 294.899 763.856 301.772C770.371 307.064 777.178 312.496 785.254 314.288C787.671 314.974 790.234 314.847 792.578 313.925C794.536 312.832 796.18 311.216 797.34 309.242C806.045 296.363 806.057 280.147 805.551 265.056C805.293 257.34 803.675 256.298 796.824 253.102C788.871 249.379 780.948 245.566 773.056 241.663C764.339 237.417 755.664 233.078 747.03 228.644Z" fill="#FBBEBE"/>
<path d="M838.069 257.539C836.73 258.373 835.316 259.067 833.846 259.612C831.386 260.22 828.881 259.132 826.489 258.289C816.379 254.776 805.147 255.608 795.375 251.264C798.579 270.437 794.384 290.152 783.704 306.116C781.682 309.113 779.02 312.18 775.515 312.414C777.077 317.414 781.884 320.434 786.445 322.682C793.727 326.275 801.346 329.076 809.179 331.042C811.426 331.592 814.167 331.861 815.47 329.871C816.256 328.7 816.593 326.698 817.974 326.768C820.086 329.11 819.39 333.91 822.31 334.964C823.22 335.206 824.174 335.206 825.085 334.964L831.599 333.793C833.554 333.617 835.436 332.941 837.081 331.826C838.111 330.894 838.961 329.765 839.586 328.501C846.887 315.54 849.695 300.543 850.818 285.732C851.369 278.379 852.054 270.582 851.571 263.206C851.122 256.884 843.349 254.975 838.069 257.539Z" fill="#E8E8F0"/>
<path opacity="0.1" d="M838.069 257.539C836.73 258.373 835.316 259.067 833.846 259.612C831.386 260.22 828.881 259.132 826.489 258.289C816.379 254.776 805.147 255.608 795.375 251.264C798.579 270.437 794.384 290.152 783.704 306.116C781.682 309.113 779.02 312.18 775.515 312.414C777.077 317.414 781.884 320.434 786.445 322.682C793.727 326.275 801.346 329.076 809.179 331.042C811.426 331.592 814.167 331.861 815.47 329.871C816.256 328.7 816.593 326.698 817.974 326.768C820.086 329.11 819.39 333.91 822.31 334.964C823.22 335.206 824.174 335.206 825.085 334.964L831.599 333.793C833.554 333.617 835.436 332.941 837.081 331.826C838.111 330.894 838.961 329.765 839.586 328.501C846.887 315.54 849.695 300.543 850.818 285.732C851.369 278.379 852.054 270.582 851.571 263.206C851.122 256.884 843.349 254.975 838.069 257.539Z" fill="black"/>
<path d="M461.522 637.31C458.32 633.024 455.029 628.482 450.289 626.222C447.558 625.074 444.683 624.341 441.752 624.044C425.948 621.703 410.11 619.268 394.16 618.811C388.948 618.659 383.355 618.811 379.109 621.984C374.245 625.602 372.369 632.263 372.1 638.48C371.809 645.883 373.22 653.251 376.213 659.972C379.206 666.692 383.695 672.57 389.308 677.116C398.855 684.703 410.919 687.876 422.691 690.382C428.88 691.705 435.103 692.887 441.348 693.894C447.593 694.901 453.951 695.697 459.983 697.711C472.878 702.019 484.256 711.76 497.78 712.568C498.416 712.67 499.066 712.555 499.634 712.24C500.227 711.741 500.626 711.033 500.757 710.25C503.733 699.303 514.056 673.089 500.757 665.432C493.804 661.44 486.087 661.264 479.28 656.194C472.473 651.125 466.689 644.229 461.522 637.31Z" fill="#BE6F72"/>
<path d="M347.972 709.981C339.222 702.043 327.147 697.84 320.789 687.736C317.993 683.287 316.577 678.065 315.173 672.937L311.04 657.459C310.721 656.508 310.576 655.503 310.613 654.497C310.927 651.265 314.578 649.732 317.656 649.228C333.381 646.676 349.758 653.279 361.53 664.448C373.301 675.618 380.861 691.026 385.298 706.995C385.61 707.808 385.657 708.704 385.433 709.547C385.048 710.297 384.441 710.897 383.703 711.257C378.019 714.769 370.381 719.886 363.743 720.963C357.104 722.04 352.701 714.219 347.972 709.981Z" fill="#BE6F72"/>
<path d="M731.877 643.245L777.931 662.458C782.3 664.279 785.896 667.677 788.063 672.031C790.23 676.385 790.824 681.406 789.736 686.178L755.465 836.426H669.784L684.701 665.491C684.701 665.491 717.275 637.391 731.877 643.245Z" fill="black"/>
<path d="M776.358 625.215C775.504 627.159 774.246 629.079 774.437 631.198C774.549 632.462 775.178 633.657 775.089 634.909C774.909 637.368 772.179 638.738 769.821 638.761C767.462 638.785 765.092 637.989 762.767 638.41C758.948 639.089 756.364 642.754 753.062 644.873C748.456 647.823 742.705 647.648 737.336 648.151C726.104 649.205 715.478 653.595 705.312 658.595C698.404 661.99 691.069 666.345 688.463 673.815C684.723 684.352 691.979 695.451 693.585 706.597C694.016 710.349 694.121 714.135 693.9 717.907C692.721 757.269 690.688 797.088 688.531 836.403L276.792 836.906L297.066 799.874C316.836 763.755 337.133 726.957 366.955 699.338C371.379 695.176 376.349 691.691 381.715 688.988L405.629 711.233C407.543 713.218 409.765 714.853 412.2 716.069C416.693 717.977 421.725 716.888 426.544 717.052C435.81 717.368 444.28 722.297 452.322 727.109C458.221 730.446 463.896 734.197 469.306 738.337C472.473 740.866 477.045 742.447 480.347 744.777L479.572 702.745C479.494 698.952 479.438 695.065 480.527 691.447C482.639 684.422 488.671 679.458 491.569 672.773C492.883 669.764 493.523 666.486 494.624 663.406C496.18 659.448 498.114 655.663 500.397 652.108L515.303 627.147C518.987 620.989 522.66 614.83 526.659 608.894C544.148 582.891 567.691 562.063 590.595 541.164C590.062 535.208 591.382 529.232 594.357 524.117C595.531 522.414 596.504 520.571 597.255 518.626C597.74 516.321 597.881 513.951 597.671 511.601C597.671 511.004 597.671 510.431 597.671 509.798C597.92 505.97 599.455 502.355 602.007 499.589C604.635 496.744 608.151 495.011 611.611 493.396C629.514 485.05 648.129 478.472 667.212 473.75C670.256 473 673.479 472.298 676.478 473.246C677.388 476.302 680.488 477.379 683.589 478.152L685.577 478.632C690.842 479.817 695.752 482.316 699.887 485.914C704.234 489.872 707.222 495.163 710.131 500.374C732.001 539.513 742.076 590.864 775.909 619.303C777.549 620.649 777.212 623.342 776.358 625.215Z" fill="#161616"/>
<path opacity="0.1" d="M914.327 144.488C902.488 171.615 879.158 198.344 848.695 198.344C846.208 198.346 843.723 198.217 841.248 197.958C840.187 196.504 839.007 195.148 837.721 193.907C832.61 188.966 825.365 187.69 820.344 183.37C823.4 177.773 830.184 172.692 834.801 168.419C839.788 163.821 844.962 159.462 850.324 155.341C861.04 147.092 872.45 139.87 884.415 133.763C892.008 129.888 899.938 126.422 908.317 125.24C909.373 124.992 910.477 125.094 911.474 125.532C912.777 126.282 913.249 127.968 913.563 129.478C915.124 136.971 913.024 136.877 914.327 144.488Z" fill="black"/>
<path d="M848.695 195.991C890.259 195.991 923.953 160.871 923.953 117.548C923.953 74.2247 890.259 39.1045 848.695 39.1045C807.132 39.1045 773.438 74.2247 773.438 117.548C773.438 160.871 807.132 195.991 848.695 195.991Z" fill="#FBBEBE"/>
<path d="M1005.42 378.435C1004.2 387.919 1002.06 397.251 999.043 406.289C997.919 409.578 996.538 412.786 995.111 415.948C986.743 434.434 982.149 454.42 979.959 474.745C979.791 476.345 979.509 477.93 979.116 479.487C977.465 486.043 973.983 491.897 971.321 498.067C968.606 504.732 966.354 511.59 964.581 518.591C963.941 520.348 963.725 522.241 963.952 524.105C964.368 526.084 965.738 527.618 966.704 529.409C971.691 538.366 965.929 549.313 963.986 559.452C963.323 562.964 963.031 566.781 960.841 569.521C958.976 571.862 956.078 572.939 953.326 573.923C914.101 587.822 873.954 598.716 833.206 606.518C827.129 607.688 820.85 608.777 814.818 607.606C808.786 606.436 802.777 602.549 800.71 596.484C799.519 592.972 799.722 589.155 799.823 585.432C800.047 577.611 799.823 569.743 799.418 561.864C798.115 535.93 795.161 509.904 801.665 485.06C803.608 477.73 806.349 470.659 808.55 463.412C812.852 449.28 813.964 434.669 815.043 420.01C815.93 407.928 816.795 395.798 819.39 383.88C821.322 374.993 820.041 365.756 819.929 356.647C819.706 335.802 825.584 315.382 836.778 298.107C838.721 295.122 840.855 292.171 841.877 288.741C843.315 283.824 842.326 278.543 841.675 273.439C840.035 260.424 840.698 247.206 843.629 234.44C844.551 229.663 846.306 225.103 848.808 220.987C851.605 216.737 855.615 213.529 859.625 210.509C882.905 193.015 908.593 179.297 935.815 169.823C938.32 176.427 940.723 184.142 942.644 190.898C942.902 191.811 943.082 192.97 942.363 193.555C941.644 194.141 940.903 193.825 940.117 193.848C939.305 193.94 938.54 194.285 937.92 194.839C937.301 195.393 936.857 196.129 936.646 196.951C936.253 198.609 936.403 200.356 937.073 201.915C938.6 206.013 941.891 209.068 945.059 211.96L960.987 226.443C962.893 228.303 964.974 229.958 967.198 231.384C969.198 232.555 971.377 233.386 973.432 234.463C981.677 238.807 987.372 247.271 990.551 256.31C993.73 265.349 992.292 276.213 996.437 284.795C1010.21 313.246 1010.1 346.906 1005.42 378.435Z" fill="#E8E8F0"/>
<path d="M994.954 676.121C999.793 696.454 999.673 717.726 994.606 737.998C993.696 741.615 992.629 745.362 993.348 749.027C993.763 751.111 994.74 753.066 994.965 755.185C995.063 757.118 994.862 759.055 994.37 760.922C989.383 785.509 991.169 811.055 993.179 836.145C992.325 836.145 992.056 836.555 991.157 836.555H969.512C969.13 829.964 961.268 825.023 957.426 819.766C953.71 814.613 951.14 808.663 949.902 802.347C948.665 796.032 948.791 789.508 950.271 783.249C953.641 769.199 963.57 757.971 968.659 744.542C974.275 729.767 973.792 713.036 979.756 698.425C983.182 689.984 989.585 683.392 994.954 676.121Z" fill="#2980B9"/>
<path opacity="0.1" d="M994.954 676.121C999.793 696.454 999.673 717.726 994.606 737.998C993.696 741.615 992.629 745.362 993.348 749.027C993.763 751.111 994.74 753.066 994.965 755.185C995.063 757.118 994.862 759.055 994.37 760.922C989.383 785.509 991.169 811.055 993.179 836.145C992.325 836.145 992.056 836.555 991.157 836.555H969.512C969.13 829.964 961.268 825.023 957.426 819.766C953.71 814.613 951.14 808.663 949.902 802.347C948.665 796.032 948.791 789.508 950.271 783.249C953.641 769.199 963.57 757.971 968.659 744.542C974.275 729.767 973.792 713.036 979.756 698.425C983.182 689.984 989.585 683.392 994.954 676.121Z" fill="#2980B9"/>
<path d="M949.53 563.432C931.131 560.365 913.305 570.024 895.535 575.89C868.386 584.846 838.496 585.396 813.414 599.458C811.173 600.582 809.142 602.112 807.416 603.977C805.38 606.604 804.099 609.779 803.72 613.133C802.599 620.548 803.977 628.14 807.618 634.617C809.179 637.38 811.145 639.92 812.358 642.882C815.234 649.907 813.313 658.009 812.819 665.689C811.695 682.842 818.076 699.537 819.356 716.678C820.12 726.781 819.12 737.108 821.4 746.966C822.827 753.148 825.511 758.978 826.623 765.23C827.735 771.482 827.252 777.594 827.623 783.776C828.668 801.49 836.407 818.7 834.52 836.344L980.543 836.848C975.129 817.214 970.624 796.912 975.533 777.137C977.236 770.885 979.353 764.762 981.868 758.814C990.034 738.244 998.425 717.614 1002.93 695.861C1007.43 674.108 1007.84 650.879 1000.21 630.086C991.719 606.904 973.668 587.621 969.737 563.151C962.997 562.215 956.28 564.556 949.53 563.432Z" fill="#2980B9"/>
<path d="M796.284 79.2862C794.869 76.1953 790.859 74.1581 788.163 76.1133C785.468 78.0686 785.816 82.4356 785.153 85.948C783.873 92.8557 777.29 97.5622 770.551 98.6628C767.394 99.1897 763.879 98.9789 761.43 96.8481C759.853 95.2736 758.692 93.3017 758.06 91.1229C751.321 72.3902 755.421 50.5198 766.451 34.1755C768.791 30.5131 771.694 27.2774 775.044 24.5984C784.333 17.5737 796.756 17.5737 808.247 17.9483C810.58 18.212 812.941 17.928 815.155 17.1171C816.842 16.1913 818.387 15.0074 819.738 13.6047C830.622 3.62952 845.663 -0.561916 860.175 0.105436C874.687 0.772788 888.649 5.9594 901.544 12.8554C907.711 16.1453 913.754 19.8801 918.584 25.0785C930.187 37.524 933.018 55.964 935.298 73.1512C937.747 91.6966 940.184 110.757 936.062 128.986C933.726 139.313 929.322 149.405 929.839 160.001C920.509 162.778 911.027 164.963 901.443 166.545C896.95 167.283 891.761 167.716 888.47 164.403C887.078 162.848 886.061 160.969 885.504 158.924C881.944 147.953 883.134 135.426 877.754 125.287C875.504 121.153 872.289 117.678 868.407 115.185C864.525 112.692 860.101 111.262 855.547 111.026C852.02 110.898 848.01 111.799 846.202 114.949C845.508 116.493 844.974 118.11 844.607 119.772C842.113 127.605 831.903 131.48 825.174 127.113C821.805 124.912 819.502 121.259 816.458 118.519C812.594 115.066 807.64 113.286 803.305 110.5C788.86 101.168 801.878 91.521 796.284 79.2862Z" fill="#161616"/>
<path opacity="0.1" d="M524.39 778.414C536.476 792.463 547.316 807.8 561.379 819.649C545.148 797.181 521.863 782.184 500.813 765.242C496.545 761.8 488.008 756.918 485.424 751.942C481.347 744.145 490.356 749.682 494.096 751.801C505.778 758.416 515.573 768.181 524.39 778.414Z" fill="black"/>
<path opacity="0.1" d="M959.257 368.308C958.684 373.366 956.876 378.166 955.045 382.873C950.552 394.581 945.733 406.171 938.949 416.556C934.276 423.71 928.716 430.173 923.841 437.162C918.837 444.581 914.246 452.294 910.092 460.262C902.432 474.405 894.966 488.666 887.695 503.043C884.224 509.927 880.775 516.87 876.294 523.087C873.148 527.283 869.773 531.286 866.184 535.076C858.322 543.716 850.245 551.701 843.214 561.067C839.732 565.751 833.925 567.554 828.499 569.146C826.685 569.775 824.794 570.13 822.883 570.2C820.959 570.06 819.066 569.622 817.267 568.9C811.208 566.973 805.279 564.626 799.519 561.875C798.216 535.942 795.262 509.915 801.766 485.071C803.709 477.742 806.45 470.67 808.651 463.423C812.953 449.292 814.065 434.68 815.144 420.022C816.48 417.083 817.907 414.168 819.289 411.335C828.656 392.04 836.553 370.79 834.115 349.283C833.495 345.405 833.064 341.498 832.824 337.575C832.847 332.765 833.625 327.991 835.126 323.443C838.488 312.701 844.045 302.847 851.414 294.559C858.783 286.272 867.789 279.749 877.81 275.441C880.975 273.899 884.426 273.1 887.919 273.099C892.412 273.345 896.714 275.78 901.095 274.89C915.933 281.693 927.941 293.307 936.915 307.38C945.89 321.453 946.384 340.256 956.146 353.743C959.032 357.841 959.819 363.262 959.257 368.308Z" fill="black"/>
<path d="M634.48 304.769L634.008 303.704L615.654 312.531L612.588 314.007L609.533 315.47L635.412 373.951L638.467 372.476L641.534 371.001L659.888 362.173L659.416 361.119L641.062 369.947L640.59 368.882L658.944 360.054L658.473 358.988L640.119 367.816L639.647 366.751L658.001 357.923L657.54 356.858L639.175 365.685L638.703 364.632L657.068 355.804L656.597 354.738L638.232 363.566L637.76 362.501L656.125 353.673L655.653 352.608L637.299 361.435L636.828 360.37L655.181 351.542L654.71 350.488L636.356 359.316L635.884 358.251L654.238 349.423L653.766 348.358L635.412 357.185L634.94 356.12L653.306 347.292L652.834 346.227L634.469 355.055L633.997 354.001L652.362 345.161L651.89 344.108L633.525 352.935L633.065 351.87L651.419 343.042L650.947 341.977L632.593 350.805L632.121 349.739L650.475 340.911L650.003 339.846L631.649 348.674L631.178 347.62L649.532 338.792L649.071 337.727L630.706 346.555L630.234 345.489L648.599 336.661L648.127 335.596L629.762 344.424L629.302 343.358L647.656 334.542L647.184 333.477L628.83 342.305L628.358 341.239L646.712 332.411L646.24 331.346L627.886 340.174L627.415 339.108L645.769 330.281L645.308 329.215L626.943 338.055L626.471 336.989L644.836 328.161L644.365 327.096L625.999 335.924L625.528 334.858L643.893 326.031L643.421 324.965L625.067 333.793L624.595 332.728L642.949 323.9L642.477 322.846L624.124 331.674L623.652 330.608L642.006 321.781L641.534 320.715L623.18 329.543L622.708 328.478L641.073 319.65L640.602 318.596L622.237 327.412L621.765 326.358L640.13 317.531L639.658 316.465L621.293 325.293L620.832 324.228L639.186 315.4L638.715 314.334L620.361 323.162L619.889 322.097L638.243 313.269L637.771 312.215L619.417 321.043L618.945 319.978L637.299 311.15L636.839 310.084L618.474 318.912L618.002 317.847L636.367 309.019L635.895 307.954L617.53 316.781L617.058 315.728L635.423 306.9L634.952 305.834L616.587 314.662L616.126 313.597L634.48 304.769Z" fill="black"/>
<path opacity="0.1" d="M692.103 433.393C689.733 437.572 686.105 441.202 681.6 442.431C675.984 443.941 669.447 441.014 666.998 435.535C665.493 432.14 665.56 428.253 665.482 424.518C665.358 417.204 664.606 409.916 663.235 402.741C662.539 399.147 661.607 395.412 659.259 392.696C656.226 389.183 651.396 388.013 646.903 387.931C641.646 387.86 635.884 389.347 632.818 393.785C630.358 397.367 629.931 402.402 626.662 405.2C625.209 406.362 623.482 407.094 621.664 407.319C617.956 407.801 614.2 406.972 610.997 404.967C607.794 402.961 605.328 399.893 603.995 396.255C602.962 393.164 602.456 389.324 599.648 387.872C598.188 387.111 596.447 387.252 594.885 386.76C590.1 385.25 588.842 378.927 588.404 373.741C587.899 367.664 589.842 355.664 582.597 355.254C574.847 354.809 565.849 359.504 558.672 361.998C554.066 363.929 548.652 366.154 544.418 363.449C541.306 361.447 540.026 357.291 540.217 353.486C540.408 349.681 541.8 346.075 542.901 342.445C544.788 336.31 545.923 329.941 547.653 323.713C546.839 325.475 546.116 327.28 545.485 329.122C542.991 336.509 541.823 344.342 539.532 351.765C538.408 355.394 537.038 359 536.847 362.805C536.656 366.611 537.97 370.767 541.048 372.769C545.283 375.473 550.697 373.249 555.302 371.317C562.48 368.823 571.477 364.128 579.227 364.573C586.472 364.983 584.529 376.984 585.034 383.06C585.473 388.247 586.731 394.569 591.516 396.079C593.077 396.571 594.818 396.431 596.278 397.192C599.086 398.643 599.648 402.484 600.625 405.575C601.958 409.213 604.424 412.28 607.627 414.286C610.83 416.292 614.586 417.12 618.294 416.639C620.113 416.413 621.839 415.681 623.292 414.519C626.561 411.721 626.988 406.687 629.448 403.104C632.514 398.643 638.277 397.157 643.533 397.25C648.026 397.32 652.913 398.491 655.889 402.015C658.237 404.732 659.169 408.466 659.866 412.061C661.236 419.235 661.988 426.523 662.112 433.837C662.191 437.572 662.112 441.459 663.628 444.855C666.066 450.334 672.614 453.261 678.231 451.751C682.724 450.521 686.363 446.892 688.733 442.712C690.537 439.299 691.926 435.665 692.867 431.894C692.62 432.433 692.372 432.913 692.103 433.393Z" fill="black"/>
<path d="M749.883 425.619C740.897 416.627 732.776 406.675 724.711 396.747C716.983 387.252 709.232 377.71 703.01 367.091C699.157 360.522 695.72 353.357 689.8 348.756C685.307 345.244 679.814 343.604 674.85 340.923C671.278 338.992 667.987 336.545 664.46 334.543C656.766 330.208 648.107 328.079 639.366 328.372C635.738 328.501 631.616 329.379 629.751 332.634C629.111 333.746 628.808 335.046 628.156 336.147C626.145 339.659 621.304 340.654 619.653 344.342C616.867 350.547 625.269 356.249 625.797 363.075C626.044 366.493 624.236 369.678 623.708 373.062C622.809 378.916 625.719 384.5 628.527 389.605C634.536 400.54 641.848 412.517 653.654 415.269C657.832 416.24 662.247 415.924 666.324 417.306C669.611 418.604 672.652 420.494 675.31 422.891C686.402 432.003 696.177 442.732 704.335 454.748C708.132 460.333 711.569 466.163 715.399 471.713C727.59 489.294 743.588 503.63 762.093 513.557L775.875 467.896C777.998 460.871 779.671 451.235 773.628 445.756C766.058 438.649 757.33 433.041 749.883 425.619Z" fill="#FBBEBE"/>
<path d="M899.916 269.083C895.535 269.961 891.188 267.538 886.74 267.292C883.246 267.29 879.795 268.09 876.631 269.634C866.611 273.945 857.607 280.469 850.238 288.756C842.869 297.042 837.312 306.895 833.947 317.636C832.46 322.203 831.693 326.991 831.678 331.814C831.745 335.737 832.532 339.6 832.97 343.522C835.407 364.995 827.511 386.256 818.154 405.574C812.976 416.24 807.135 427.492 808.359 439.375C808.517 440.967 808.764 442.759 807.831 444.058C806.708 445.604 804.282 445.686 803.237 447.313C802.193 448.941 803.148 451.399 802.316 453.237C801.193 455.836 797.531 455.52 794.914 454.595C787.74 452.065 781.095 448.131 775.336 443.005C766.002 448.683 756.016 455.45 752.949 466.245C752.229 468.999 751.729 471.811 751.455 474.651L746.637 516.566C745.996 522.115 745.682 528.625 749.703 532.324C756.634 538.717 768.978 530.439 776.392 536.223C778.29 537.698 779.526 539.899 780.885 541.901C788.983 553.481 802.923 558.574 815.998 562.976C817.799 563.689 819.691 564.122 821.614 564.264C823.526 564.208 825.419 563.852 827.23 563.21C832.667 561.618 838.463 559.768 841.945 555.143C848.987 545.777 857.064 537.792 864.926 529.152C868.509 525.356 871.884 521.353 875.036 517.163C879.529 510.934 882.966 503.991 886.437 497.107C893.693 482.73 901.151 468.469 908.812 454.326C913.009 446.39 917.641 438.713 922.684 431.332C927.57 424.307 933.119 417.868 937.792 410.726C944.531 400.329 949.372 388.692 953.888 377.042C955.719 372.359 957.527 367.524 958.111 362.477C958.695 357.431 957.909 352.011 954.966 347.948C945.205 334.449 944.722 315.657 935.747 301.584C926.773 287.512 914.765 275.874 899.916 269.083Z" fill="#E8E8F0"/>
<path d="M634.783 309.569C634.521 309.743 634.299 309.975 634.132 310.248C633.965 310.521 633.858 310.829 633.817 311.15C633.817 311.735 634.278 312.192 634.525 312.719C635.21 314.218 634.109 315.95 632.851 316.981C631.593 318.011 630.066 318.807 629.38 320.317C629.275 320.517 629.228 320.745 629.246 320.973C629.322 321.281 629.496 321.554 629.74 321.746C630.48 322.632 631.44 323.288 632.514 323.642C634.233 324.017 635.884 322.835 637.344 321.863C638.928 320.819 640.615 319.955 642.376 319.287C642.922 319.119 643.435 318.854 643.893 318.503C644.454 317.919 644.8 317.148 644.87 316.325C645.252 313.386 643.747 310.565 642.028 308.129C639.961 305.261 636.547 307.989 634.783 309.569Z" fill="#161616"/>
<path d="M462.453 656.536L345.859 594.507C345.008 594.054 343.966 594.406 343.532 595.293L313.817 655.974C313.383 656.861 313.721 657.947 314.572 658.4L431.166 720.429C432.017 720.882 433.059 720.53 433.493 719.643L463.208 658.962C463.642 658.075 463.304 656.989 462.453 656.536Z" fill="#161616"/>
<path d="M451.719 658.096L351.132 604.583L325.61 656.702L426.197 710.215L451.719 658.096Z" fill="#E8E8F0"/>
<path d="M336.158 629.484C336.466 628.856 335.976 627.954 335.064 627.469C334.152 626.984 333.164 627.1 332.857 627.727C332.549 628.355 333.039 629.257 333.951 629.742C334.863 630.227 335.851 630.112 336.158 629.484Z" fill="#E6E8EC"/>
<path d="M446.156 688.156C446.661 687.125 445.852 685.641 444.349 684.841C442.846 684.042 441.219 684.229 440.714 685.26C440.209 686.291 441.018 687.775 442.521 688.575C444.024 689.374 445.652 689.187 446.156 688.156Z" fill="#E6E8EC"/>
<g opacity="0.1">
<path d="M936.039 120.744C933.703 131.07 929.3 141.163 929.817 151.758C920.487 154.535 911.004 156.721 901.421 158.303C896.928 159.041 891.738 159.474 888.447 156.16C887.055 154.605 886.039 152.727 885.482 150.681C881.921 139.711 883.112 127.183 877.731 117.044C875.482 112.91 872.267 109.436 868.384 106.943C864.502 104.45 860.079 103.019 855.525 102.784C851.998 102.655 847.988 103.557 846.179 106.706C845.486 108.251 844.951 109.868 844.584 111.53C842.091 119.362 831.88 123.238 825.152 118.871C821.782 116.67 819.48 113.017 816.436 110.277C812.572 106.823 807.618 105.044 803.282 102.257C799.373 99.7516 797.498 97.2227 796.7 94.6118C795.712 100.243 795.431 105.418 803.282 110.453C807.618 113.239 812.572 115.019 816.436 118.473C819.48 121.189 821.737 124.865 825.152 127.066C831.891 131.41 842.091 127.558 844.584 119.725C844.951 118.063 845.486 116.446 846.179 114.902C847.988 111.752 851.998 110.851 855.525 110.98C860.079 111.215 864.502 112.645 868.384 115.138C872.267 117.631 875.482 121.106 877.731 125.24C883.112 135.379 881.921 147.906 885.482 158.877C886.047 160.94 887.079 162.831 888.492 164.391C891.783 167.669 896.984 167.271 901.466 166.534C911.049 164.952 920.532 162.766 929.862 159.989C929.311 149.393 933.748 139.301 936.084 128.975C937.884 120.525 938.605 111.864 938.23 103.217C938.051 109.12 937.317 114.99 936.039 120.744Z" fill="black"/>
<path d="M797.374 82.5644C798.196 78.7136 797.802 74.689 796.251 71.0906C794.835 67.9997 790.825 65.9625 788.13 67.9178C785.434 69.873 785.816 74.24 785.153 77.7524C783.873 84.6601 777.29 89.3667 770.551 90.4672C767.394 90.9941 763.879 90.7833 761.43 88.6525C759.853 87.078 758.692 85.1061 758.06 82.9273C756.335 78.0579 755.287 72.9562 754.949 67.7773C754.379 75.7013 755.439 83.6609 758.06 91.1229C758.692 93.3016 759.853 95.2736 761.43 96.8481C763.879 98.9789 767.394 99.1896 770.551 98.6628C777.212 97.5622 783.828 92.8088 785.153 85.948C785.793 82.4356 785.355 78.1856 788.141 76.1718C790.926 74.1581 794.88 76.2538 796.262 79.3447C796.743 80.3729 797.116 81.4524 797.374 82.5644Z" fill="black"/>
</g>
<rect x="252" y="832" width="800" height="10" fill="black"/>
</g>
<defs>
<clipPath id="clip0_1_12">
<rect width="1285" height="837" fill="white"/>
</clipPath>
</defs>
</svg>
