<svg width="140" height="141" viewBox="0 0 140 141" fill="none" xmlns="http://www.w3.org/2000/svg">
<path d="M139.501 74.5C139.501 79.6911 135.994 85.5715 131.651 90.1963C129.49 92.4974 127.147 94.4598 124.982 95.8431C122.797 97.2394 120.862 98 119.501 98C118.773 98 118.34 97.8987 118.092 97.7528C117.887 97.6318 117.773 97.46 117.743 97.1409C117.71 96.7863 117.788 96.2837 117.995 95.5834C118.2 94.8923 118.514 94.0593 118.912 93.0598C119.076 92.6485 119.252 92.2113 119.44 91.7477C121.07 87.7176 123.511 81.6834 125.176 73.1353C126.377 69.8844 127.114 67.3175 127.637 65.2973C127.835 64.5346 128 63.859 128.147 63.2576C128.396 62.2411 128.592 61.4362 128.807 60.7803C129.142 59.7534 129.477 59.2451 129.991 58.9486C130.54 58.6315 131.383 58.5 132.894 58.5C134.321 58.5 135.409 58.8373 136.253 59.465C137.102 60.0955 137.754 61.0548 138.242 62.384C139.229 65.0676 139.501 69.1062 139.501 74.5Z" stroke="white"/>
<path d="M14.8097 73.0468L14.8075 73.0235V73C14.8075 67.6224 14.263 63.9837 13.0318 61.6986C12.4242 60.571 11.6539 59.7823 10.6996 59.2698C9.74022 58.7546 8.56014 58.5 7.10726 58.5C5.67929 58.5 4.59194 58.8373 3.74736 59.465C2.89894 60.0955 2.24721 61.0548 1.75835 62.384C0.77141 65.0676 0.500006 69.1062 0.500006 74.5C0.500006 79.6979 3.76488 85.33 7.85062 89.697C9.8849 91.8713 12.1005 93.7074 14.1699 94.9963C16.2151 96.2701 18.0582 96.9721 19.4189 96.9992C19.8811 96.835 20.1372 96.6475 20.281 96.4554C20.4262 96.2612 20.5031 96 20.4821 95.5962C20.4606 95.1823 20.3381 94.66 20.1215 93.9884C19.9082 93.327 19.6156 92.5561 19.2688 91.6419L19.2585 91.6149C17.8539 87.9126 15.6623 82.1133 14.8097 73.0468Z" stroke="white"/>
<path d="M126 51.5014C126 76.1336 119.559 97.6585 109.329 113.01C99.0959 128.365 85.1086 137.501 70.0002 137.501C54.8879 137.501 40.5244 128.361 29.9172 113.003C19.3134 97.6507 12.5002 76.1277 12.5002 51.5014C12.5002 26.8907 19.9225 14.2196 31.0108 7.6447C42.1676 1.02912 57.1506 0.5 72.5002 0.5C87.8592 0.5 101.192 1.03312 110.71 7.62566C120.176 14.1818 126 26.8454 126 51.5014Z" stroke="white"/>
<path fill-rule="evenodd" clip-rule="evenodd" d="M13.5 62.5L20.5 84.5L32 98L48.5 104.5L63 98L79 97L95 103L108.5 98L118.5 84.5L127 61L123.5 86L114 112L106 122.5L97.5 130L89 136L79 140.5H63L48.5 135L37.5 125L32.5 119L28.5 113L23.5 105L20.5 97L18 90.5L15.5 83L13.5 72.5L13 67L13.5 62.5ZM65.8669 104.169L55.2117 107.01C53.0229 107.594 51.5 109.576 51.5 111.841V118C51.5 119.847 52.5177 121.543 54.1471 122.412L65.3971 128.412C66.1212 128.798 66.9293 129 67.75 129H76.6298C77.5267 129 78.4072 128.759 79.1788 128.301L89.049 122.452C90.5683 121.552 91.5 119.917 91.5 118.151V111.772C91.5 109.539 90.0201 107.577 87.8736 106.964L78.1733 104.192C77.7266 104.065 77.2643 104 76.7997 104H67.1552C66.7203 104 66.2872 104.057 65.8669 104.169Z" fill="white"/>
</svg>
