<svg width="140" height="198" viewBox="0 0 140 198" fill="none" xmlns="http://www.w3.org/2000/svg">
<path d="M139.501 133.5C139.501 138.691 135.994 144.571 131.651 149.196C129.49 151.497 127.147 153.46 124.982 154.843C122.797 156.239 120.862 157 119.501 157C118.773 157 118.34 156.899 118.092 156.753C117.887 156.632 117.773 156.46 117.743 156.141C117.71 155.786 117.788 155.284 117.995 154.583C118.2 153.892 118.514 153.059 118.912 152.06C119.076 151.648 119.252 151.211 119.44 150.748C121.07 146.718 123.511 140.683 125.176 132.135C126.377 128.884 127.114 126.318 127.637 124.297C127.835 123.535 128 122.859 128.147 122.258C128.396 121.241 128.592 120.436 128.807 119.78C129.142 118.753 129.477 118.245 129.991 117.949C130.54 117.632 131.383 117.5 132.894 117.5C134.321 117.5 135.409 117.837 136.253 118.465C137.102 119.095 137.754 120.055 138.242 121.384C139.229 124.068 139.501 128.106 139.501 133.5Z" stroke="white"/>
<path d="M14.8097 132.047L14.8075 132.023V132C14.8075 126.622 14.263 122.984 13.0318 120.699C12.4242 119.571 11.6539 118.782 10.6996 118.27C9.74022 117.755 8.56014 117.5 7.10726 117.5C5.67929 117.5 4.59194 117.837 3.74736 118.465C2.89894 119.095 2.24721 120.055 1.75835 121.384C0.77141 124.068 0.500006 128.106 0.500006 133.5C0.500006 138.698 3.76488 144.33 7.85062 148.697C9.8849 150.871 12.1005 152.707 14.1699 153.996C16.2151 155.27 18.0582 155.972 19.4189 155.999C19.8811 155.835 20.1372 155.648 20.281 155.455C20.4262 155.261 20.5031 155 20.4821 154.596C20.4606 154.182 20.3381 153.66 20.1215 152.988C19.9082 152.327 19.6156 151.556 19.2688 150.642L19.2585 150.615C17.8539 146.913 15.6623 141.113 14.8097 132.047Z" stroke="white"/>
<path d="M126 110.501C126 135.134 119.559 156.658 109.329 172.01C99.0959 187.365 85.1086 196.501 70.0002 196.501C54.8879 196.501 40.5244 187.361 29.9172 172.003C19.3134 156.651 12.5002 135.128 12.5002 110.501C12.5002 85.8907 19.9225 73.2196 31.0108 66.6447C42.1676 60.0291 57.1506 59.5 72.5002 59.5C87.8592 59.5 101.192 60.0331 110.71 66.6257C120.176 73.1818 126 85.8454 126 110.501Z" stroke="white"/>
<g filter="url(#filter0_d_1_34)">
<path d="M12.5 118V67.5L21 51.5L28.5 42L68 36L67 28L62.5 20.5L77 0L82 2.5L88 0L82 14L80.5 20.5L82 24.5L88 28L78.5 31L75.5 36L107.5 42L117.5 53.5L120.5 64.5L124 87L124.875 94L126 103V118L124.875 94L116 70.5L99 62L71 64.5L41 63L27 69L17 82L12.5 118Z" fill="url(#paint0_linear_1_34)"/>
</g>
<path fill-rule="evenodd" clip-rule="evenodd" d="M13 119.5L20 141.5L31.5 155L48 161.5L62.5 155L78.5 154L94.5 160L108 155L118 141.5L126.5 118L123 143L113.5 169L105.5 179.5L97 187L88.5 193L78.5 197.5H62.5L48 192L37 182L32 176L28 170L23 162L20 154L17.5 147.5L15 140L13 129.5L12.5 124L13 119.5ZM65.3669 161.169L54.7117 164.01C52.5229 164.594 51 166.576 51 168.841V175C51 176.847 52.0177 178.543 53.6471 179.412L64.8971 185.412C65.6212 185.798 66.4293 186 67.25 186H76.1298C77.0267 186 77.9072 185.759 78.6788 185.301L88.549 179.452C90.0683 178.552 91 176.917 91 175.151V168.772C91 166.539 89.5201 164.577 87.3736 163.964L77.6733 161.192C77.2266 161.065 76.7643 161 76.2997 161H66.6552C66.2203 161 65.7872 161.057 65.3669 161.169Z" fill="white"/>
<defs>
<filter id="filter0_d_1_34" x="8.5" y="0" width="121.5" height="126" filterUnits="userSpaceOnUse" color-interpolation-filters="sRGB">
<feFlood flood-opacity="0" result="BackgroundImageFix"/>
<feColorMatrix in="SourceAlpha" type="matrix" values="0 0 0 0 0 0 0 0 0 0 0 0 0 0 0 0 0 0 127 0" result="hardAlpha"/>
<feOffset dy="4"/>
<feGaussianBlur stdDeviation="2"/>
<feComposite in2="hardAlpha" operator="out"/>
<feColorMatrix type="matrix" values="0 0 0 0 0 0 0 0 0 0 0 0 0 0 0 0 0 0 0.25 0"/>
<feBlend mode="normal" in2="BackgroundImageFix" result="effect1_dropShadow_1_34"/>
<feBlend mode="normal" in="SourceGraphic" in2="effect1_dropShadow_1_34" result="shape"/>
</filter>
<linearGradient id="paint0_linear_1_34" x1="72.5" y1="59" x2="83" y2="10.5" gradientUnits="userSpaceOnUse">
<stop stop-color="white"/>
<stop offset="1" stop-color="white"/>
</linearGradient>
</defs>
</svg>
