<svg width="36" height="36" viewBox="0 0 36 36" fill="none" xmlns="http://www.w3.org/2000/svg">
<path d="M19.591 3.37507C18.7123 2.4964 17.2877 2.49639 16.409 3.37507L1.4545 18.3296C1.01517 18.7689 1.01517 19.4812 1.4545 19.9206C1.89384 20.3599 2.60616 20.3599 3.0455 19.9206L18 4.96606L32.9545 19.9206C33.3938 20.3599 34.1062 20.3599 34.5455 19.9206C34.9848 19.4812 34.9848 18.7689 34.5455 18.3296L29.25 13.0341V5.62507C29.25 5.00375 28.7463 4.50007 28.125 4.50007H25.875C25.2537 4.50007 24.75 5.00375 24.75 5.62507V8.53408L19.591 3.37507Z" fill="#f1f2f6"/>
<path d="M18 7.40908L31.5 20.9091V30.3751C31.5 32.239 29.989 33.7501 28.125 33.7501H7.875C6.01104 33.7501 4.5 32.239 4.5 30.3751V20.9091L18 7.40908Z" fill="#f1f2f6"/>
</svg>
