<svg width="149" height="172" viewBox="0 0 149 172" fill="none" xmlns="http://www.w3.org/2000/svg">
<path d="M144.501 101.5C144.501 106.691 140.994 112.571 136.651 117.196C134.49 119.497 132.147 121.46 129.982 122.843C127.796 124.239 125.862 125 124.5 125C123.772 125 123.34 124.899 123.092 124.753C122.887 124.632 122.772 124.46 122.743 124.141C122.709 123.786 122.788 123.284 122.995 122.583C123.2 121.892 123.514 121.059 123.912 120.06C124.076 119.648 124.252 119.211 124.44 118.748C126.07 114.718 128.511 108.683 130.176 100.135C131.377 96.8844 132.114 94.3175 132.637 92.2973C132.835 91.5346 133 90.859 133.147 90.2576C133.395 89.2411 133.592 88.4362 133.807 87.7803C134.142 86.7534 134.477 86.2451 134.991 85.9486C135.539 85.6315 136.382 85.5 137.893 85.5C139.321 85.5 140.409 85.8373 141.253 86.465C142.102 87.0955 142.753 88.0548 143.242 89.384C144.229 92.0676 144.501 96.1062 144.501 101.5Z" stroke="white"/>
<path d="M19.8096 100.047L19.8074 100.023V100C19.8074 94.6224 19.2629 90.9837 18.0316 88.6986C17.424 87.571 16.6537 86.7823 15.6994 86.2698C14.7401 85.7546 13.56 85.5 12.1071 85.5C10.6791 85.5 9.59177 85.8373 8.74719 86.465C7.89877 87.0955 7.24704 88.0548 6.75818 89.384C5.77124 92.0676 5.49984 96.1062 5.49984 101.5C5.49984 106.698 8.76472 112.33 12.8505 116.697C14.8847 118.871 17.1003 120.707 19.1698 121.996C21.215 123.27 23.058 123.972 24.4187 123.999C24.8809 123.835 25.1371 123.648 25.2808 123.455C25.426 123.261 25.5029 123 25.482 122.596C25.4605 122.182 25.338 121.66 25.1213 120.988C24.908 120.327 24.6155 119.556 24.2686 118.642L24.2584 118.615C22.8537 114.913 20.6621 109.113 19.8096 100.047Z" stroke="white"/>
<path d="M131 78.5014C131 103.134 124.559 124.658 114.328 140.01C104.096 155.365 90.1084 164.501 75 164.501C59.8877 164.501 45.5242 155.361 34.917 140.003C24.3132 124.651 17.5 103.128 17.5 78.5014C17.5 53.8907 24.9223 41.2196 36.0106 34.6447C47.1674 28.0291 62.1504 27.5 77.5 27.5C92.859 27.5 106.192 28.0331 115.71 34.6257C125.175 41.1818 131 53.8454 131 78.5014Z" stroke="white"/>
<g filter="url(#filter0_d_103_34)">
<path d="M21.6996 102.319L19.735 105.159L14.8233 96.6372L13.3498 86.6947L7.947 83.854V79.5929L5 63.4956L7.947 44.5575L16.2968 24.6726L26.6113 15.677L41.8375 5.73451L55.0989 1H63.4488H73.7633L83.0954 2.42035L94.8834 5.73451L105.198 4.78761L109.618 3.84071H114.945L111.092 5.73451L105.198 9.99557L114.945 8.57522H119.442L126.318 5.73451L134.177 3.84071V9.99557L132.703 21.8319L131.23 28.9336L137.615 24.6726L142.035 20.4115L139.58 28.9336L134.177 37.4557L128.774 44.5575L131.23 46.9248L144 47.8717L136.141 50.2389L128.774 52.1327L131.23 55.4469L134.177 64.9159V85.7478L131.23 95.2168L128.774 108H125.336V106.106V92.3761L122.88 78.1726L115.512 71.5442L105.198 55.4469L93.4099 53.5531H87.5159L90.9541 68.7035L85.5512 63.4956L79.1661 56.3938L65.9046 47.8717H63.4488L73.7633 60.6549L75.2367 64.9159L76.2191 70.1239V71.0708L69.3428 59.2345L58.5371 45.9779L50.6784 41.7168L40.8551 35.5619V48.8186L37.417 53.5531L31.0318 66.8097L19.735 81.9602L21.6996 102.319Z" fill="white"/>
<path d="M21.6996 102.319L19.735 105.159L14.8233 96.6372L13.3498 86.6947L7.947 83.854V79.5929L5 63.4956L7.947 44.5575L16.2968 24.6726L26.6113 15.677L41.8375 5.73451L55.0989 1H63.4488H73.7633L83.0954 2.42035L94.8834 5.73451L105.198 4.78761L109.618 3.84071H114.945L111.092 5.73451L105.198 9.99557L114.945 8.57522H119.442L126.318 5.73451L134.177 3.84071V9.99557L132.703 21.8319L131.23 28.9336L137.615 24.6726L142.035 20.4115L139.58 28.9336L134.177 37.4557L128.774 44.5575L131.23 46.9248L144 47.8717L136.141 50.2389L128.774 52.1327L131.23 55.4469L134.177 64.9159V85.7478L131.23 95.2168L128.774 108H125.336V106.106V92.3761L122.88 78.1726L115.512 71.5442L105.198 55.4469L93.4099 53.5531H87.5159L90.9541 68.7035L85.5512 63.4956L79.1661 56.3938L65.9046 47.8717H63.4488L73.7633 60.6549L75.2367 64.9159L76.2191 70.1239V71.0708L69.3428 59.2345L58.5371 45.9779L50.6784 41.7168L40.8551 35.5619V48.8186L37.417 53.5531L31.0318 66.8097L19.735 81.9602L21.6996 102.319Z" stroke="white"/>
</g>
<line x1="88.341" y1="81.6667" x2="113.819" y2="81.6667" stroke="white"/>
<line y1="-0.5" x2="7.92458" y2="-0.5" transform="matrix(0.676866 0.736107 -0.820766 0.571265 112.478 82.1667)" stroke="white"/>
<line x1="88.341" y1="85.1667" x2="113.819" y2="85.1667" stroke="white"/>
<line y1="-0.5" x2="4.70799" y2="-0.5" transform="matrix(0.910942 0.412535 -0.513417 0.858139 112.478 85.6667)" stroke="white"/>
<line y1="-0.5" x2="4.85551" y2="-0.5" transform="matrix(0.276175 0.961107 -0.977153 0.212535 87 81)" stroke="white"/>
<line x1="88.341" y1="82.8333" x2="113.819" y2="82.8333" stroke="white"/>
<line y1="-0.5" x2="26.8507" y2="-0.5" transform="matrix(1 -0.000349021 0.000461099 1 88.3409 84.54)" stroke="white"/>
<line y1="-0.5" x2="2.69122" y2="-0.5" transform="matrix(0.498276 0.867018 -0.916994 0.398901 113.819 84.5)" stroke="white"/>
<line y1="-0.5" x2="4.4094" y2="-0.5" transform="matrix(0.608232 0.793759 -0.865027 0.501726 112.478 83.3333)" stroke="white"/>
<line x1="88.341" y1="82.8333" x2="113.819" y2="82.8333" stroke="white"/>
<line x1="117.001" y1="86.8333" x2="117.001" y2="88" stroke="white"/>
<line y1="-0.5" x2="8.42706" y2="-0.5" transform="matrix(0.752147 0.658995 -0.756714 0.653746 112.662 81.7233)" stroke="white"/>
<line y1="-0.5" x2="25.4784" y2="-0.5" transform="matrix(-1 0 0 1 60.6591 82.1667)" stroke="white"/>
<line y1="-0.5" x2="7.92458" y2="-0.5" transform="matrix(-0.676866 0.736107 0.820766 0.571265 36.5216 82.1667)" stroke="white"/>
<line y1="-0.5" x2="25.4784" y2="-0.5" transform="matrix(-1 0 0 1 60.6591 85.6667)" stroke="white"/>
<line y1="-0.5" x2="4.70799" y2="-0.5" transform="matrix(-0.910942 0.412535 0.513418 0.858139 36.5216 85.6667)" stroke="white"/>
<line y1="-0.5" x2="4.85551" y2="-0.5" transform="matrix(-0.276175 0.961107 0.977153 0.212535 62 81)" stroke="white"/>
<line y1="-0.5" x2="25.4784" y2="-0.5" transform="matrix(-1 0 0 1 60.6591 83.3333)" stroke="white"/>
<line y1="-0.5" x2="26.8507" y2="-0.5" transform="matrix(-1 -0.000349021 -0.0004611 1 60.6591 84.54)" stroke="white"/>
<line y1="-0.5" x2="2.69122" y2="-0.5" transform="matrix(-0.498276 0.867018 0.916994 0.398901 35.1806 84.5)" stroke="white"/>
<line y1="-0.5" x2="4.4094" y2="-0.5" transform="matrix(-0.608232 0.793759 0.865027 0.501726 36.5216 83.3333)" stroke="white"/>
<line y1="-0.5" x2="25.4784" y2="-0.5" transform="matrix(-1 0 0 1 60.6591 83.3333)" stroke="white"/>
<line y1="-0.5" x2="1.16667" y2="-0.5" transform="matrix(0 1 1 0 32.4987 86.8333)" stroke="white"/>
<line y1="-0.5" x2="8.42706" y2="-0.5" transform="matrix(-0.752147 0.658995 0.756714 0.653746 36.3384 81.7233)" stroke="white"/>
<path fill-rule="evenodd" clip-rule="evenodd" d="M16.5258 93.4581L23.9044 115.334L35.6356 128.634L52.2453 134.848L66.631 128.099L82.6113 126.823L98.7125 132.546L112.124 127.314L121.89 113.643L129.983 90L126.915 115.057L117.865 141.217L110.047 151.853L101.678 159.499L93.2827 165.645L83.3619 170.316L67.3643 170.592L52.7715 165.343L41.6006 155.535L36.4978 149.622L32.3949 143.692L27.2576 135.779L24.12 127.832L21.5083 121.376L18.8792 113.921L16.6983 103.457L16.1035 97.9661L16.5258 93.4581ZM69.6039 134.217L58.9993 137.242C56.8209 137.863 55.3324 139.872 55.3715 142.137L55.4778 148.294C55.5096 150.141 56.5565 151.819 58.2005 152.66L69.5524 158.465C70.2831 158.838 71.0945 159.026 71.9151 159.012L80.7936 158.859C81.6904 158.844 82.5665 158.587 83.3302 158.117L93.098 152.098C94.6016 151.172 95.5049 149.521 95.4744 147.755L95.3643 141.376C95.3258 139.144 93.8123 137.208 91.6555 136.632L81.9089 134.028C81.46 133.909 80.9967 133.852 80.5322 133.86L70.8891 134.026C70.4542 134.034 70.0221 134.098 69.6039 134.217Z" fill="white"/>
<defs>
<filter id="filter0_d_103_34" x="0.49292" y="0.5" width="147.651" height="116" filterUnits="userSpaceOnUse" color-interpolation-filters="sRGB">
<feFlood flood-opacity="0" result="BackgroundImageFix"/>
<feColorMatrix in="SourceAlpha" type="matrix" values="0 0 0 0 0 0 0 0 0 0 0 0 0 0 0 0 0 0 127 0" result="hardAlpha"/>
<feOffset dy="4"/>
<feGaussianBlur stdDeviation="2"/>
<feComposite in2="hardAlpha" operator="out"/>
<feColorMatrix type="matrix" values="0 0 0 0 0 0 0 0 0 0 0 0 0 0 0 0 0 0 0.25 0"/>
<feBlend mode="normal" in2="BackgroundImageFix" result="effect1_dropShadow_103_34"/>
<feBlend mode="normal" in="SourceGraphic" in2="effect1_dropShadow_103_34" result="shape"/>
</filter>
</defs>
</svg>
