<svg width="36" height="36" viewBox="0 0 36 36" fill="none" xmlns="http://www.w3.org/2000/svg">
<path d="M24.75 13.5C24.75 17.2279 21.7279 20.25 18 20.25C14.2721 20.25 11.25 17.2279 11.25 13.5C11.25 9.77208 14.2721 6.75 18 6.75C21.7279 6.75 24.75 9.77208 24.75 13.5Z" fill="#F1F2F6"/>
<path d="M4.5 0C2.01472 0 0 2.01472 0 4.5V31.5C0 33.9853 2.01472 36 4.5 36H31.5C33.9853 36 36 33.9853 36 31.5V4.5C36 2.01472 33.9853 0 31.5 0H4.5ZM31.5 2.25C32.7426 2.25 33.75 3.25736 33.75 4.5V31.5C33.75 32.7426 32.7426 33.75 31.5 33.75V31.5C31.5 29.25 29.25 22.5 18 22.5C6.75 22.5 4.5 29.25 4.5 31.5V33.75C3.25736 33.75 2.25 32.7426 2.25 31.5V4.5C2.25 3.25736 3.25736 2.25 4.5 2.25H31.5Z" fill="#F1F2F6"/>
</svg>
