<svg width="778" height="836" viewBox="0 0 778 836" fill="none" xmlns="http://www.w3.org/2000/svg">
<rect x="-99" y="-231" width="1920" height="1080" fill="#3D3D3D"/>
<g clip-path="url(#clip0_1_54)">
<path d="M668.704 192.162C660.235 195.885 651.743 199.62 643.858 204.538C640.274 206.762 636.837 209.221 633.153 211.246C629.188 213.447 624.976 215.11 620.797 216.889C609.266 221.799 598.068 227.517 587.279 234.006C588.212 221.42 586.448 207.746 579.226 197.934C578.164 196.48 576.984 195.125 575.699 193.883C570.588 188.943 563.343 187.666 558.322 183.346C561.377 177.75 568.162 172.669 572.778 168.395C577.765 163.798 582.94 159.439 588.302 155.317C599.018 147.069 610.428 139.847 622.392 133.74C629.985 129.864 637.916 126.399 646.295 125.216C647.351 124.968 648.454 125.071 649.451 125.509C650.754 126.258 651.226 127.944 651.541 129.455C653.102 137.006 653.899 144.757 655.202 152.367C655.841 156.278 656.708 160.145 657.797 163.946C659.197 168.442 660.813 172.861 662.638 177.188C664.668 182.175 666.69 187.167 668.704 192.162Z" fill="#FBBEBE"/>
<path d="M428.317 405.574C428.314 421.116 423.601 436.26 414.852 448.845C406.102 461.429 393.762 470.811 379.593 475.652C365.424 480.493 350.15 480.545 335.95 475.8C321.751 471.056 309.353 461.758 300.524 449.233C291.591 436.582 286.777 421.283 286.787 405.574C286.787 386.012 294.243 367.251 307.514 353.418C320.785 339.586 338.784 331.814 357.552 331.814C376.32 331.814 394.319 339.586 407.59 353.418C420.861 367.251 428.317 386.012 428.317 405.574Z" fill="#BE6F72"/>
<path d="M332.2 470.577C335.986 477.379 339.805 484.24 342.231 491.651C344.657 499.062 345.601 507.27 343.601 514.845C367.706 501.615 396.394 502.68 422.925 495.983C423.635 495.898 424.288 495.539 424.756 494.976C424.918 494.592 425.001 494.178 425.001 493.759C425.001 493.339 424.918 492.925 424.756 492.541C419.202 471.118 417.066 448.888 418.432 426.742L404.583 435.278C398.52 439.181 392.237 442.7 385.768 445.815C376.614 449.994 366.897 452.523 357.339 455.45C349.768 457.792 334.739 460.824 329.976 467.72C330.835 468.566 331.583 469.526 332.2 470.577Z" fill="#BE6F72"/>
<path d="M293.212 371.387C288.607 373.319 283.193 375.544 278.958 372.839C275.847 370.837 274.566 366.681 274.757 362.876C274.948 359.07 276.341 355.464 277.442 351.835C279.688 344.377 280.901 336.615 283.406 329.192C285.911 321.769 290 314.615 296.492 310.693C308.443 303.481 323.911 309.441 337.176 305.448C342.792 303.774 347.679 300.402 352.902 297.756C358.125 295.11 364 293.073 369.638 294.49C376.243 296.093 381.118 301.889 387.273 304.839C394.013 308.071 402.078 307.848 408.211 312.168C412.558 315.236 415.298 320.188 417.736 325.047C425.534 340.662 431.692 357.11 436.101 374.103C437.864 380.188 438.872 386.484 439.1 392.836C439.156 400.961 437.045 408.923 434.955 416.767L431.586 429.178C430.339 433.861 429.058 438.544 426.699 442.782C424.341 447.02 420.701 450.591 416.197 451.821C410.581 453.331 404.043 450.404 401.595 444.925C400.09 441.529 400.157 437.642 400.078 433.908C399.954 426.593 399.202 419.305 397.832 412.131C397.135 408.536 396.203 404.802 393.856 402.085C390.823 398.573 385.993 397.402 381.5 397.32C376.243 397.25 370.481 398.737 367.414 403.174C364.954 406.757 364.527 411.791 361.259 414.589C359.806 415.751 358.079 416.483 356.26 416.709C352.552 417.19 348.796 416.362 345.593 414.356C342.39 412.35 339.925 409.283 338.592 405.645C337.558 402.554 337.053 398.713 334.245 397.262C332.784 396.501 331.043 396.641 329.482 396.149C324.697 394.639 323.439 388.317 323.001 383.13C322.495 377.054 324.439 365.053 317.194 364.643C309.387 364.199 300.39 368.893 293.212 371.387Z" fill="#161616"/>
<path d="M310.184 451.341C307.691 452.594 304.961 454.057 303.984 456.75C303.602 457.804 303.535 458.963 303.187 460.04C301.603 464.805 295.425 465.742 292.235 469.535C290.796 471.452 289.828 473.707 289.416 476.103C287.285 485.552 287.974 495.454 291.392 504.483C292.383 507.344 293.91 509.971 295.885 512.21C301.592 518.275 311.431 518.158 318.541 514.025C325.652 509.892 330.56 502.645 334.728 495.292C336.937 491.592 338.784 487.669 340.243 483.584C341.524 479.43 342.438 475.162 342.972 470.835C345.466 453.963 348.723 435.254 347.6 418.149C344.23 417.926 337.794 417.681 334.817 419.882C331.088 422.645 332.122 428.218 330.774 432.257C327.584 441.974 318.328 447.103 310.184 451.341Z" fill="#161616"/>
<path d="M313.105 453.577C308.893 453.846 301.344 448.988 297.121 449.233C294.247 444.004 291.707 438.584 289.517 433.006C291.763 429.646 295.38 428.826 300.85 433.006C305.242 436.226 311.308 447.36 313.105 453.577Z" fill="#161616"/>
<path d="M376.602 268.592C372.031 271.109 369.2 271.226 366.942 270.722C364.685 270.219 360.203 272.561 360.203 272.561C320.608 286.68 319.047 293.342 319.047 293.342L364.887 276.471C373.704 272.444 373.873 273.86 373.873 273.86C380.612 280.463 389.194 275.991 389.194 275.991C389.194 275.991 401.067 270.137 397.573 264.506C394.08 258.874 381.185 266.121 376.602 268.592ZM395.698 267.538C395.698 267.538 392.328 276.904 380.208 275.382C380.208 275.382 374.255 274.469 376.771 269.844C376.771 269.844 389.127 264.435 392.395 264.822C395.664 265.208 395.664 267.585 395.664 267.585L395.698 267.538Z" fill="#E8E8F0"/>
<path opacity="0.1" d="M376.602 268.592C372.031 271.109 369.2 271.226 366.942 270.722C364.685 270.219 360.203 272.561 360.203 272.561C320.608 286.68 319.047 293.342 319.047 293.342L364.887 276.471C373.704 272.444 373.873 273.86 373.873 273.86C380.612 280.463 389.194 275.991 389.194 275.991C389.194 275.991 401.067 270.137 397.573 264.506C394.08 258.874 381.185 266.121 376.602 268.592ZM395.698 267.538C395.698 267.538 392.328 276.904 380.208 275.382C380.208 275.382 374.255 274.469 376.771 269.844C376.771 269.844 389.127 264.435 392.395 264.822C395.664 265.208 395.664 267.585 395.664 267.585L395.698 267.538Z" fill="black"/>
<path d="M379.118 242.483C372.267 242.717 370.84 248.056 370.84 248.056C369.468 249.762 368.665 251.886 368.549 254.109C368.434 256.332 369.013 258.534 370.2 260.384L358.035 272.994C355.73 273.921 353.749 275.554 352.351 277.677C352.351 277.677 325.64 302.264 326.034 304.5C326.034 304.5 330.392 306.841 358.035 280.581L365.291 273.884C365.291 273.884 366.897 261.368 378.231 258.991C378.231 258.991 379.354 259.506 379.95 256.72C380.585 255.384 381.432 254.168 382.454 253.125C383.96 251.674 385.97 242.237 379.118 242.483ZM381.039 250.948C381.039 250.948 377.366 260.829 372.132 257.973C366.897 255.116 371.986 248.524 371.986 248.524C381.062 239.322 381.039 250.948 381.039 250.948Z" fill="#E8E8F0"/>
<path opacity="0.1" d="M358.271 277.911C359.071 277.911 359.72 277.235 359.72 276.401C359.72 275.567 359.071 274.891 358.271 274.891C357.471 274.891 356.822 275.567 356.822 276.401C356.822 277.235 357.471 277.911 358.271 277.911Z" fill="black"/>
<path d="M485.03 228.644C480.802 226.323 476.412 224.334 471.899 222.697C465.9 220.923 459.735 219.824 453.511 219.418C433.847 217.467 414.123 216.335 394.338 216.023C390.845 216.023 387.273 215.941 383.96 217.194C381 218.378 378.318 220.21 376.097 222.568C372.248 226.403 369.19 231.016 367.111 236.126C366.443 237.406 366.243 238.895 366.549 240.317C366.999 241.675 368.796 242.577 369.818 241.617C367.203 243.813 365.282 246.778 364.305 250.127C363.327 253.476 363.338 257.054 364.336 260.396C362.777 261.246 361.455 262.501 360.497 264.039C359.538 265.577 358.977 267.347 358.866 269.177C367.033 270.753 375.439 270.328 383.42 267.936C381.039 267.304 378.579 269.634 378.433 272.186C378.449 273.468 378.805 274.721 379.461 275.806C380.117 276.89 381.048 277.765 382.151 278.333C384.379 279.432 386.833 279.938 389.295 279.808C398.809 279.808 408.065 276.448 417.556 276.014C424.812 275.675 432.293 277.045 439.224 274.844C447.266 272.245 454.444 264.88 462.733 266.414C469.349 267.643 473.663 274.048 477.976 279.41C484.873 287.968 493.398 294.899 501.856 301.772C508.371 307.064 515.178 312.496 523.254 314.288C525.671 314.974 528.234 314.847 530.578 313.925C532.536 312.832 534.18 311.216 535.34 309.242C544.045 296.363 544.057 280.147 543.551 265.056C543.293 257.34 541.675 256.298 534.824 253.102C526.871 249.379 518.948 245.566 511.056 241.663C502.339 237.417 493.664 233.078 485.03 228.644Z" fill="#FBBEBE"/>
<path d="M576.069 257.539C574.73 258.373 573.316 259.067 571.846 259.612C569.386 260.22 566.881 259.132 564.489 258.289C554.379 254.776 543.147 255.608 533.375 251.264C536.579 270.437 532.384 290.152 521.704 306.116C519.682 309.113 517.02 312.18 513.515 312.414C515.077 317.414 519.884 320.434 524.445 322.682C531.727 326.275 539.346 329.076 547.179 331.042C549.426 331.592 552.167 331.861 553.47 329.871C554.256 328.7 554.593 326.698 555.974 326.768C558.086 329.11 557.39 333.91 560.31 334.964C561.22 335.206 562.174 335.206 563.085 334.964L569.599 333.793C571.554 333.617 573.436 332.941 575.081 331.826C576.111 330.894 576.961 329.765 577.586 328.501C584.887 315.54 587.695 300.543 588.818 285.732C589.369 278.379 590.054 270.582 589.571 263.206C589.122 256.884 581.349 254.975 576.069 257.539Z" fill="#E8E8F0"/>
<path opacity="0.1" d="M576.069 257.539C574.73 258.373 573.316 259.067 571.846 259.612C569.386 260.22 566.881 259.132 564.489 258.289C554.379 254.776 543.147 255.608 533.375 251.264C536.579 270.437 532.384 290.152 521.704 306.116C519.682 309.113 517.02 312.18 513.515 312.414C515.077 317.414 519.884 320.434 524.445 322.682C531.727 326.275 539.346 329.076 547.179 331.042C549.426 331.592 552.167 331.861 553.47 329.871C554.256 328.7 554.593 326.698 555.974 326.768C558.086 329.11 557.39 333.91 560.31 334.964C561.22 335.206 562.174 335.206 563.085 334.964L569.599 333.793C571.554 333.617 573.436 332.941 575.081 331.826C576.111 330.894 576.961 329.765 577.586 328.501C584.887 315.54 587.695 300.543 588.818 285.732C589.369 278.379 590.054 270.582 589.571 263.206C589.122 256.884 581.349 254.975 576.069 257.539Z" fill="black"/>
<path d="M199.522 637.31C196.32 633.024 193.029 628.482 188.289 626.222C185.558 625.074 182.683 624.341 179.752 624.044C163.948 621.703 148.11 619.268 132.16 618.811C126.948 618.659 121.355 618.811 117.109 621.984C112.245 625.602 110.369 632.263 110.1 638.48C109.809 645.883 111.22 653.251 114.213 659.972C117.206 666.692 121.695 672.57 127.308 677.116C136.855 684.703 148.919 687.876 160.691 690.382C166.88 691.705 173.103 692.887 179.348 693.894C185.593 694.901 191.951 695.697 197.983 697.711C210.878 702.019 222.256 711.76 235.78 712.568C236.416 712.67 237.066 712.555 237.634 712.24C238.227 711.741 238.626 711.033 238.757 710.25C241.733 699.303 252.056 673.089 238.757 665.432C231.804 661.44 224.087 661.264 217.28 656.194C210.473 651.125 204.689 644.229 199.522 637.31Z" fill="#BE6F72"/>
<path d="M85.9722 709.981C77.222 702.043 65.147 697.84 58.7894 687.736C55.9925 683.287 54.5773 678.065 53.1732 672.937L49.0396 657.459C48.7212 656.508 48.5764 655.503 48.6128 654.497C48.9273 651.265 52.5779 649.732 55.6556 649.228C71.3811 646.676 87.7581 653.279 99.5298 664.448C111.301 675.618 118.861 691.026 123.298 706.995C123.61 707.808 123.657 708.704 123.433 709.547C123.048 710.297 122.441 710.897 121.703 711.257C116.019 714.769 108.381 719.886 101.743 720.963C95.1042 722.04 90.701 714.219 85.9722 709.981Z" fill="#BE6F72"/>
<path d="M469.877 643.245L515.931 662.458C520.3 664.279 523.896 667.677 526.063 672.031C528.23 676.385 528.824 681.406 527.736 686.178L493.465 836.426H407.784L422.701 665.491C422.701 665.491 455.275 637.391 469.877 643.245Z" fill="black"/>
<path d="M514.358 625.215C513.504 627.159 512.246 629.079 512.437 631.198C512.55 632.462 513.178 633.657 513.089 634.909C512.909 637.368 510.179 638.738 507.821 638.761C505.462 638.785 503.092 637.989 500.767 638.41C496.948 639.089 494.364 642.754 491.062 644.873C486.456 647.823 480.705 647.648 475.336 648.151C464.104 649.205 453.478 653.595 443.312 658.595C436.404 661.99 429.069 666.345 426.463 673.815C422.723 684.352 429.979 695.451 431.585 706.597C432.016 710.349 432.121 714.135 431.9 717.907C430.721 757.269 428.687 797.088 426.531 836.403L14.7917 836.906L35.0664 799.874C54.8357 763.755 75.1328 726.957 104.955 699.338C109.379 695.176 114.349 691.691 119.715 688.988L143.629 711.233C145.543 713.218 147.765 714.853 150.2 716.069C154.693 717.977 159.725 716.888 164.544 717.052C173.81 717.368 182.28 722.297 190.322 727.109C196.221 730.446 201.896 734.197 207.306 738.337C210.473 740.866 215.045 742.447 218.347 744.777L217.572 702.745C217.494 698.952 217.438 695.065 218.527 691.447C220.639 684.422 226.671 679.458 229.569 672.773C230.883 669.764 231.523 666.486 232.624 663.406C234.18 659.448 236.114 655.663 238.397 652.108L253.303 627.147C256.987 620.989 260.66 614.83 264.659 608.894C282.148 582.891 305.691 562.063 328.595 541.164C328.062 535.208 329.382 529.232 332.357 524.117C333.531 522.414 334.504 520.571 335.255 518.626C335.74 516.321 335.881 513.951 335.671 511.601C335.671 511.004 335.671 510.431 335.671 509.798C335.92 505.97 337.455 502.355 340.007 499.589C342.635 496.744 346.151 495.011 349.611 493.396C367.514 485.05 386.129 478.472 405.212 473.75C408.256 473 411.479 472.298 414.478 473.246C415.388 476.302 418.488 477.379 421.589 478.152L423.577 478.632C428.842 479.817 433.752 482.316 437.887 485.914C442.234 489.872 445.222 495.163 448.131 500.374C470.001 539.513 480.076 590.864 513.909 619.303C515.549 620.649 515.212 623.342 514.358 625.215Z" fill="#161616"/>
<path opacity="0.1" d="M652.327 144.488C640.488 171.615 617.158 198.344 586.695 198.344C584.208 198.346 581.723 198.217 579.248 197.958C578.187 196.504 577.007 195.148 575.721 193.907C570.61 188.966 563.365 187.69 558.344 183.37C561.4 177.773 568.184 172.692 572.801 168.419C577.788 163.821 582.962 159.462 588.324 155.341C599.04 147.092 610.45 139.87 622.415 133.763C630.008 129.888 637.938 126.422 646.318 125.24C647.373 124.992 648.477 125.094 649.474 125.532C650.777 126.282 651.249 127.968 651.563 129.478C653.124 136.971 651.024 136.877 652.327 144.488Z" fill="black"/>
<path d="M586.695 195.991C628.259 195.991 661.953 160.871 661.953 117.548C661.953 74.2247 628.259 39.1045 586.695 39.1045C545.132 39.1045 511.438 74.2247 511.438 117.548C511.438 160.871 545.132 195.991 586.695 195.991Z" fill="#FBBEBE"/>
<path d="M743.423 378.435C742.198 387.919 740.061 397.251 737.043 406.289C735.919 409.578 734.538 412.786 733.111 415.948C724.743 434.434 720.149 454.42 717.959 474.745C717.791 476.345 717.509 477.93 717.116 479.487C715.465 486.043 711.983 491.897 709.321 498.067C706.606 504.732 704.354 511.59 702.581 518.591C701.941 520.348 701.725 522.241 701.952 524.105C702.368 526.084 703.738 527.618 704.704 529.409C709.691 538.366 703.929 549.313 701.986 559.452C701.323 562.964 701.031 566.781 698.841 569.521C696.976 571.862 694.078 572.939 691.326 573.923C652.101 587.822 611.954 598.716 571.206 606.518C565.129 607.688 558.85 608.777 552.818 607.606C546.786 606.436 540.777 602.549 538.71 596.484C537.519 592.972 537.722 589.155 537.823 585.432C538.047 577.611 537.823 569.743 537.418 561.864C536.115 535.93 533.161 509.904 539.665 485.06C541.608 477.73 544.349 470.659 546.55 463.412C550.852 449.28 551.964 434.669 553.043 420.01C553.93 407.928 554.795 395.798 557.39 383.88C559.322 374.993 558.041 365.756 557.929 356.647C557.706 335.802 563.584 315.382 574.778 298.107C576.721 295.122 578.855 292.171 579.877 288.741C581.315 283.824 580.326 278.543 579.675 273.439C578.035 260.424 578.698 247.206 581.629 234.44C582.551 229.663 584.306 225.103 586.808 220.987C589.605 216.737 593.615 213.529 597.625 210.509C620.905 193.015 646.593 179.297 673.815 169.823C676.32 176.427 678.723 184.142 680.644 190.898C680.902 191.811 681.082 192.97 680.363 193.555C679.644 194.141 678.903 193.825 678.117 193.848C677.305 193.94 676.54 194.285 675.92 194.839C675.301 195.393 674.857 196.129 674.646 196.951C674.253 198.609 674.403 200.356 675.073 201.915C676.6 206.013 679.891 209.068 683.059 211.96L698.987 226.443C700.893 228.303 702.974 229.958 705.198 231.384C707.198 232.555 709.377 233.386 711.432 234.463C719.677 238.807 725.372 247.271 728.551 256.31C731.73 265.349 730.292 276.213 734.437 284.795C748.208 313.246 748.095 346.906 743.423 378.435Z" fill="#E8E8F0"/>
<path d="M732.954 676.121C737.793 696.454 737.673 717.726 732.606 737.998C731.696 741.615 730.629 745.362 731.348 749.027C731.763 751.111 732.74 753.066 732.965 755.185C733.063 757.118 732.862 759.055 732.37 760.922C727.383 785.509 729.169 811.055 731.179 836.145C730.325 836.145 730.056 836.555 729.157 836.555H707.512C707.13 829.964 699.268 825.023 695.426 819.766C691.71 814.613 689.14 808.663 687.902 802.347C686.665 796.032 686.791 789.508 688.271 783.249C691.641 769.199 701.57 757.971 706.659 744.542C712.275 729.767 711.792 713.036 717.756 698.425C721.182 689.984 727.585 683.392 732.954 676.121Z" fill="#2980B9"/>
<path opacity="0.1" d="M732.954 676.121C737.793 696.454 737.673 717.726 732.606 737.998C731.696 741.615 730.629 745.362 731.348 749.027C731.763 751.111 732.74 753.066 732.965 755.185C733.063 757.118 732.862 759.055 732.37 760.922C727.383 785.509 729.169 811.055 731.179 836.145C730.325 836.145 730.056 836.555 729.157 836.555H707.512C707.13 829.964 699.268 825.023 695.426 819.766C691.71 814.613 689.14 808.663 687.902 802.347C686.665 796.032 686.791 789.508 688.271 783.249C691.641 769.199 701.57 757.971 706.659 744.542C712.275 729.767 711.792 713.036 717.756 698.425C721.182 689.984 727.585 683.392 732.954 676.121Z" fill="#2980B9"/>
<path d="M687.53 563.432C669.131 560.365 651.305 570.024 633.535 575.89C606.386 584.846 576.496 585.396 551.414 599.458C549.173 600.582 547.142 602.112 545.416 603.977C543.38 606.604 542.099 609.779 541.72 613.133C540.599 620.548 541.977 628.14 545.618 634.617C547.179 637.38 549.145 639.92 550.358 642.882C553.234 649.907 551.313 658.009 550.819 665.689C549.695 682.842 556.076 699.537 557.356 716.678C558.12 726.781 557.12 737.108 559.4 746.966C560.827 753.148 563.511 758.978 564.623 765.23C565.735 771.482 565.252 777.594 565.623 783.776C566.668 801.49 574.407 818.7 572.52 836.344L718.543 836.848C713.129 817.214 708.624 796.912 713.533 777.137C715.236 770.885 717.353 764.762 719.868 758.814C728.034 738.244 736.425 717.614 740.929 695.861C745.433 674.108 745.838 650.879 738.211 630.086C729.719 606.904 711.668 587.621 707.737 563.151C700.997 562.215 694.28 564.556 687.53 563.432Z" fill="#2980B9"/>
<path d="M534.284 79.2862C532.869 76.1953 528.859 74.1581 526.163 76.1133C523.468 78.0686 523.816 82.4356 523.153 85.948C521.873 92.8557 515.29 97.5623 508.551 98.6628C505.394 99.1897 501.879 98.9789 499.43 96.8481C497.853 95.2736 496.692 93.3017 496.06 91.1229C489.321 72.3902 493.421 50.5198 504.451 34.1755C506.791 30.5131 509.694 27.2774 513.044 24.5984C522.333 17.5737 534.756 17.5737 546.247 17.9483C548.58 18.212 550.941 17.928 553.155 17.1171C554.842 16.1913 556.387 15.0074 557.738 13.6047C568.622 3.62952 583.663 -0.561916 598.175 0.105436C612.687 0.772788 626.649 5.9594 639.544 12.8554C645.711 16.1453 651.754 19.8801 656.584 25.0785C668.187 37.524 671.018 55.964 673.298 73.1512C675.747 91.6966 678.184 110.757 674.062 128.986C671.726 139.313 667.322 149.405 667.839 160.001C658.509 162.778 649.027 164.963 639.443 166.545C634.95 167.283 629.761 167.716 626.47 164.403C625.078 162.848 624.061 160.969 623.504 158.924C619.944 147.953 621.134 135.426 615.754 125.287C613.504 121.153 610.289 117.678 606.407 115.185C602.525 112.692 598.101 111.262 593.547 111.026C590.02 110.898 586.01 111.799 584.202 114.949C583.508 116.493 582.974 118.11 582.607 119.772C580.113 127.605 569.903 131.48 563.174 127.113C559.805 124.912 557.502 121.259 554.458 118.519C550.594 115.066 545.641 113.286 541.305 110.5C526.86 101.168 539.878 91.521 534.284 79.2862Z" fill="#161616"/>
<path opacity="0.1" d="M262.39 778.414C274.476 792.463 285.316 807.8 299.379 819.649C283.148 797.181 259.863 782.184 238.813 765.242C234.545 761.8 226.008 756.918 223.424 751.942C219.347 744.145 228.356 749.682 232.096 751.801C243.778 758.416 253.573 768.181 262.39 778.414Z" fill="black"/>
<path opacity="0.1" d="M697.257 368.308C696.684 373.366 694.876 378.166 693.045 382.873C688.552 394.581 683.733 406.171 676.949 416.556C672.276 423.71 666.716 430.173 661.841 437.162C656.837 444.581 652.246 452.294 648.092 460.262C640.432 474.405 632.966 488.666 625.695 503.043C622.224 509.927 618.775 516.87 614.294 523.087C611.148 527.283 607.773 531.286 604.184 535.076C596.322 543.716 588.245 551.701 581.214 561.067C577.732 565.751 571.925 567.554 566.499 569.146C564.685 569.775 562.794 570.13 560.883 570.2C558.959 570.06 557.066 569.622 555.267 568.9C549.208 566.973 543.279 564.626 537.519 561.875C536.216 535.942 533.262 509.915 539.766 485.071C541.709 477.742 544.45 470.67 546.651 463.423C550.953 449.292 552.065 434.68 553.144 420.022C554.48 417.083 555.907 414.168 557.289 411.335C566.656 392.04 574.553 370.79 572.115 349.283C571.495 345.405 571.064 341.498 570.824 337.575C570.847 332.765 571.625 327.991 573.126 323.443C576.488 312.701 582.045 302.847 589.414 294.559C596.783 286.272 605.789 279.749 615.81 275.441C618.975 273.899 622.426 273.1 625.919 273.099C630.412 273.345 634.714 275.78 639.095 274.89C653.933 281.693 665.941 293.307 674.915 307.38C683.89 321.453 684.384 340.256 694.146 353.743C697.032 357.841 697.819 363.262 697.257 368.308Z" fill="black"/>
<path d="M372.48 304.769L372.008 303.704L353.654 312.531L350.588 314.007L347.533 315.47L373.412 373.951L376.467 372.476L379.534 371.001L397.888 362.173L397.416 361.119L379.062 369.947L378.59 368.882L396.944 360.054L396.473 358.988L378.119 367.816L377.647 366.751L396.001 357.923L395.54 356.858L377.175 365.685L376.703 364.632L395.068 355.804L394.597 354.738L376.232 363.566L375.76 362.501L394.125 353.673L393.653 352.608L375.299 361.435L374.828 360.37L393.181 351.542L392.71 350.488L374.356 359.316L373.884 358.251L392.238 349.423L391.766 348.358L373.412 357.185L372.94 356.12L391.306 347.292L390.834 346.227L372.469 355.055L371.997 354.001L390.362 345.161L389.89 344.108L371.525 352.935L371.065 351.87L389.419 343.042L388.947 341.977L370.593 350.805L370.121 349.739L388.475 340.911L388.003 339.846L369.649 348.674L369.178 347.62L387.532 338.792L387.071 337.727L368.706 346.555L368.234 345.489L386.599 336.661L386.127 335.596L367.762 344.424L367.302 343.358L385.656 334.542L385.184 333.477L366.83 342.305L366.358 341.239L384.712 332.411L384.24 331.346L365.886 340.174L365.415 339.108L383.769 330.281L383.308 329.215L364.943 338.055L364.471 336.989L382.836 328.161L382.365 327.096L363.999 335.924L363.528 334.858L381.893 326.031L381.421 324.965L363.067 333.793L362.595 332.728L380.949 323.9L380.477 322.846L362.124 331.674L361.652 330.608L380.006 321.781L379.534 320.715L361.18 329.543L360.708 328.478L379.073 319.65L378.602 318.596L360.237 327.412L359.765 326.358L378.13 317.531L377.658 316.465L359.293 325.293L358.832 324.228L377.186 315.4L376.715 314.334L358.361 323.162L357.889 322.097L376.243 313.269L375.771 312.215L357.417 321.043L356.945 319.978L375.299 311.15L374.839 310.084L356.474 318.912L356.002 317.847L374.367 309.019L373.895 307.954L355.53 316.781L355.058 315.728L373.423 306.9L372.952 305.834L354.587 314.662L354.126 313.597L372.48 304.769Z" fill="black"/>
<path opacity="0.1" d="M430.103 433.393C427.733 437.572 424.105 441.202 419.6 442.431C413.984 443.941 407.447 441.014 404.998 435.535C403.493 432.14 403.56 428.253 403.482 424.518C403.358 417.204 402.606 409.916 401.235 402.741C400.539 399.147 399.607 395.412 397.259 392.696C394.226 389.183 389.396 388.013 384.903 387.931C379.646 387.86 373.884 389.347 370.818 393.785C368.358 397.367 367.931 402.402 364.662 405.2C363.209 406.362 361.482 407.094 359.664 407.319C355.956 407.801 352.2 406.972 348.997 404.967C345.794 402.961 343.328 399.893 341.995 396.255C340.962 393.164 340.456 389.324 337.648 387.872C336.188 387.111 334.447 387.252 332.885 386.76C328.1 385.25 326.842 378.927 326.404 373.741C325.899 367.664 327.842 355.664 320.597 355.254C312.847 354.809 303.849 359.504 296.672 361.998C292.066 363.929 286.652 366.154 282.418 363.449C279.306 361.447 278.026 357.291 278.217 353.486C278.408 349.681 279.8 346.075 280.901 342.445C282.788 336.31 283.923 329.941 285.653 323.713C284.839 325.475 284.116 327.28 283.485 329.122C280.991 336.509 279.823 344.342 277.532 351.765C276.408 355.394 275.038 359 274.847 362.805C274.656 366.611 275.97 370.767 279.048 372.769C283.283 375.473 288.697 373.249 293.302 371.317C300.48 368.823 309.477 364.128 317.227 364.573C324.472 364.983 322.529 376.984 323.034 383.06C323.473 388.247 324.731 394.569 329.516 396.079C331.077 396.571 332.818 396.431 334.278 397.192C337.086 398.643 337.648 402.484 338.625 405.575C339.958 409.213 342.424 412.28 345.627 414.286C348.83 416.292 352.586 417.12 356.294 416.639C358.113 416.413 359.839 415.681 361.292 414.519C364.561 411.721 364.988 406.687 367.448 403.104C370.514 398.643 376.277 397.157 381.533 397.25C386.026 397.32 390.913 398.491 393.889 402.015C396.237 404.732 397.169 408.466 397.866 412.061C399.236 419.235 399.988 426.523 400.112 433.837C400.191 437.572 400.112 441.459 401.628 444.855C404.066 450.334 410.614 453.261 416.231 451.751C420.724 450.521 424.363 446.892 426.733 442.712C428.537 439.299 429.926 435.665 430.867 431.894C430.62 432.433 430.372 432.913 430.103 433.393Z" fill="black"/>
<path d="M487.883 425.619C478.897 416.627 470.776 406.675 462.711 396.747C454.983 387.252 447.232 377.71 441.01 367.091C437.157 360.522 433.72 353.357 427.8 348.756C423.307 345.244 417.814 343.604 412.85 340.923C409.278 338.992 405.987 336.545 402.46 334.543C394.766 330.208 386.107 328.079 377.366 328.372C373.738 328.501 369.616 329.379 367.751 332.634C367.111 333.746 366.808 335.046 366.156 336.147C364.145 339.659 359.304 340.654 357.653 344.342C354.867 350.547 363.269 356.249 363.797 363.075C364.044 366.493 362.236 369.678 361.708 373.062C360.809 378.916 363.719 384.5 366.527 389.605C372.536 400.54 379.848 412.517 391.654 415.269C395.832 416.24 400.247 415.924 404.324 417.306C407.611 418.604 410.652 420.494 413.31 422.891C424.402 432.003 434.177 442.732 442.335 454.748C446.132 460.333 449.569 466.163 453.399 471.713C465.59 489.294 481.588 503.63 500.093 513.557L513.875 467.896C515.998 460.871 517.671 451.235 511.628 445.756C504.058 438.649 495.33 433.041 487.883 425.619Z" fill="#FBBEBE"/>
<path d="M637.916 269.083C633.535 269.961 629.188 267.538 624.74 267.292C621.246 267.29 617.795 268.09 614.631 269.634C604.611 273.945 595.607 280.469 588.238 288.756C580.869 297.042 575.312 306.895 571.947 317.636C570.46 322.203 569.693 326.991 569.678 331.814C569.745 335.737 570.532 339.6 570.97 343.522C573.407 364.995 565.511 386.256 556.154 405.574C550.976 416.24 545.135 427.492 546.359 439.375C546.517 440.967 546.764 442.759 545.831 444.058C544.708 445.604 542.282 445.686 541.237 447.313C540.193 448.941 541.148 451.399 540.316 453.237C539.193 455.836 535.531 455.52 532.914 454.595C525.74 452.065 519.095 448.131 513.336 443.005C504.002 448.683 494.016 455.45 490.949 466.245C490.229 468.999 489.729 471.811 489.455 474.651L484.637 516.566C483.996 522.115 483.682 528.625 487.703 532.324C494.634 538.717 506.978 530.439 514.392 536.223C516.29 537.698 517.526 539.899 518.885 541.901C526.983 553.481 540.923 558.574 553.998 562.976C555.799 563.689 557.691 564.122 559.614 564.264C561.526 564.208 563.419 563.852 565.23 563.21C570.667 561.618 576.463 559.768 579.945 555.143C586.987 545.777 595.064 537.792 602.926 529.152C606.509 525.356 609.884 521.353 613.036 517.163C617.529 510.934 620.966 503.991 624.437 497.107C631.693 482.73 639.151 468.469 646.812 454.326C651.009 446.39 655.641 438.713 660.684 431.332C665.57 424.307 671.119 417.868 675.792 410.726C682.531 400.329 687.372 388.692 691.888 377.042C693.719 372.359 695.527 367.524 696.111 362.477C696.695 357.431 695.909 352.011 692.966 347.948C683.205 334.449 682.722 315.657 673.747 301.584C664.773 287.512 652.765 275.874 637.916 269.083Z" fill="#E8E8F0"/>
<path d="M372.783 309.569C372.521 309.743 372.299 309.975 372.132 310.248C371.965 310.521 371.858 310.829 371.817 311.15C371.817 311.735 372.278 312.192 372.525 312.719C373.21 314.218 372.109 315.95 370.851 316.981C369.593 318.011 368.066 318.807 367.38 320.317C367.275 320.517 367.228 320.745 367.246 320.973C367.322 321.281 367.496 321.554 367.74 321.746C368.48 322.632 369.44 323.288 370.514 323.642C372.233 324.017 373.884 322.835 375.344 321.863C376.928 320.819 378.615 319.955 380.376 319.287C380.922 319.119 381.435 318.854 381.893 318.503C382.454 317.919 382.8 317.148 382.87 316.325C383.252 313.386 381.747 310.565 380.028 308.129C377.961 305.261 374.547 307.989 372.783 309.569Z" fill="#161616"/>
<path d="M200.453 656.536L83.8588 594.507C83.0079 594.054 81.966 594.406 81.5317 595.293L51.8173 655.974C51.383 656.861 51.7207 657.947 52.5717 658.4L169.166 720.429C170.017 720.882 171.059 720.53 171.493 719.643L201.208 658.962C201.642 658.075 201.304 656.989 200.453 656.536Z" fill="#161616"/>
<path d="M189.719 658.096L89.132 604.583L63.61 656.702L164.197 710.215L189.719 658.096Z" fill="#E8E8F0"/>
<path d="M74.1583 629.484C74.4657 628.856 73.9758 627.954 73.0641 627.469C72.1524 626.984 71.1641 627.1 70.8567 627.727C70.5493 628.355 71.0392 629.257 71.9509 629.742C72.8626 630.227 73.8509 630.112 74.1583 629.484Z" fill="#E6E8EC"/>
<path d="M184.156 688.156C184.661 687.125 183.852 685.641 182.349 684.841C180.846 684.042 179.219 684.229 178.714 685.26C178.209 686.291 179.018 687.775 180.521 688.575C182.024 689.374 183.652 689.187 184.156 688.156Z" fill="#E6E8EC"/>
<g opacity="0.1">
<path d="M674.039 120.744C671.703 131.07 667.3 141.163 667.817 151.758C658.487 154.535 649.004 156.721 639.421 158.303C634.928 159.041 629.738 159.474 626.447 156.16C625.055 154.605 624.039 152.727 623.482 150.681C619.921 139.711 621.112 127.183 615.731 117.044C613.482 112.91 610.267 109.436 606.384 106.943C602.502 104.45 598.079 103.019 593.525 102.784C589.998 102.655 585.988 103.557 584.179 106.706C583.486 108.251 582.951 109.868 582.584 111.53C580.091 119.362 569.88 123.238 563.152 118.871C559.782 116.67 557.48 113.017 554.436 110.277C550.572 106.823 545.618 105.044 541.282 102.257C537.373 99.7516 535.498 97.2227 534.7 94.6118C533.712 100.243 533.431 105.418 541.282 110.453C545.618 113.239 550.572 115.019 554.436 118.473C557.48 121.189 559.737 124.865 563.152 127.066C569.891 131.41 580.091 127.558 582.584 119.725C582.951 118.063 583.486 116.446 584.179 114.902C585.988 111.752 589.998 110.851 593.525 110.98C598.079 111.215 602.502 112.645 606.384 115.138C610.267 117.631 613.482 121.106 615.731 125.24C621.112 135.379 619.921 147.906 623.482 158.877C624.047 160.94 625.079 162.831 626.492 164.391C629.783 167.669 634.984 167.271 639.466 166.534C649.049 164.952 658.532 162.766 667.862 159.989C667.311 149.393 671.748 139.301 674.084 128.975C675.884 120.525 676.605 111.864 676.23 103.217C676.051 109.12 675.317 114.99 674.039 120.744Z" fill="black"/>
<path d="M535.374 82.5644C536.196 78.7136 535.802 74.689 534.251 71.0906C532.835 67.9997 528.825 65.9625 526.13 67.9178C523.434 69.873 523.816 74.24 523.153 77.7524C521.873 84.6601 515.29 89.3667 508.551 90.4672C505.394 90.9941 501.879 90.7834 499.43 88.6525C497.853 87.078 496.692 85.1061 496.06 82.9273C494.335 78.0579 493.287 72.9562 492.949 67.7773C492.379 75.7013 493.439 83.6609 496.06 91.1229C496.692 93.3016 497.853 95.2736 499.43 96.8481C501.879 98.9789 505.394 99.1896 508.551 98.6628C515.212 97.5622 521.828 92.8088 523.153 85.948C523.793 82.4356 523.355 78.1856 526.141 76.1718C528.927 74.1581 532.88 76.2538 534.262 79.3447C534.743 80.3729 535.116 81.4524 535.374 82.5644Z" fill="black"/>
</g>
<rect x="-10" y="832" width="800" height="10" fill="black"/>
</g>
<defs>
<clipPath id="clip0_1_54">
<rect width="1285" height="837" fill="white" transform="translate(-262)"/>
</clipPath>
</defs>
</svg>
