<svg width="140" height="138" viewBox="0 0 140 138" fill="none" xmlns="http://www.w3.org/2000/svg">
<line y1="-0.5" x2="25.4784" y2="-0.5" transform="matrix(-1 0 0 1 56.6591 54.1667)" stroke="white"/>
<line y1="-0.5" x2="7.92458" y2="-0.5" transform="matrix(-0.676866 0.736107 0.820766 0.571265 32.5216 54.1667)" stroke="white"/>
<line y1="-0.5" x2="25.4784" y2="-0.5" transform="matrix(-1 0 0 1 56.6591 57.6667)" stroke="white"/>
<line y1="-0.5" x2="4.70799" y2="-0.5" transform="matrix(-0.910942 0.412535 0.513418 0.858139 32.5216 57.6667)" stroke="white"/>
<line y1="-0.5" x2="4.85551" y2="-0.5" transform="matrix(-0.276175 0.961107 0.977153 0.212535 58 53)" stroke="white"/>
<line y1="-0.5" x2="25.4784" y2="-0.5" transform="matrix(-1 0 0 1 56.6591 55.3333)" stroke="white"/>
<line y1="-0.5" x2="26.8507" y2="-0.5" transform="matrix(-1 -0.000349021 -0.0004611 1 56.6591 56.54)" stroke="white"/>
<line y1="-0.5" x2="2.69122" y2="-0.5" transform="matrix(-0.498276 0.867018 0.916994 0.398901 31.1806 56.5)" stroke="white"/>
<line y1="-0.5" x2="4.4094" y2="-0.5" transform="matrix(-0.608232 0.793759 0.865027 0.501726 32.5216 55.3333)" stroke="white"/>
<line y1="-0.5" x2="25.4784" y2="-0.5" transform="matrix(-1 0 0 1 56.6591 55.3333)" stroke="white"/>
<line y1="-0.5" x2="1.16667" y2="-0.5" transform="matrix(0 1 1 0 28.4987 58.8333)" stroke="white"/>
<line y1="-0.5" x2="8.42706" y2="-0.5" transform="matrix(-0.752147 0.658995 0.756714 0.653746 32.3384 53.7233)" stroke="white"/>
<line x1="84.341" y1="53.6667" x2="109.819" y2="53.6667" stroke="white"/>
<line y1="-0.5" x2="7.92458" y2="-0.5" transform="matrix(0.676866 0.736107 -0.820766 0.571265 108.478 54.1667)" stroke="white"/>
<line x1="84.341" y1="57.1667" x2="109.819" y2="57.1667" stroke="white"/>
<line y1="-0.5" x2="4.70799" y2="-0.5" transform="matrix(0.910942 0.412535 -0.513417 0.858139 108.478 57.6667)" stroke="white"/>
<line y1="-0.5" x2="4.85551" y2="-0.5" transform="matrix(0.276175 0.961107 -0.977153 0.212535 83 53)" stroke="white"/>
<line x1="84.341" y1="54.8333" x2="109.819" y2="54.8333" stroke="white"/>
<line y1="-0.5" x2="26.8507" y2="-0.5" transform="matrix(1 -0.000349021 0.000461099 1 84.3409 56.54)" stroke="white"/>
<line y1="-0.5" x2="2.69122" y2="-0.5" transform="matrix(0.498276 0.867018 -0.916994 0.398901 109.819 56.5)" stroke="white"/>
<line y1="-0.5" x2="4.4094" y2="-0.5" transform="matrix(0.608232 0.793759 -0.865027 0.501726 108.478 55.3333)" stroke="white"/>
<line x1="84.341" y1="54.8333" x2="109.819" y2="54.8333" stroke="white"/>
<line x1="113.001" y1="58.8333" x2="113.001" y2="60" stroke="white"/>
<line y1="-0.5" x2="8.42706" y2="-0.5" transform="matrix(0.752147 0.658995 -0.756714 0.653746 108.662 53.7233)" stroke="white"/>
<path d="M139.501 74.5C139.501 79.6911 135.994 85.5715 131.651 90.1963C129.49 92.4974 127.147 94.4598 124.982 95.8431C122.797 97.2394 120.862 98 119.501 98C118.773 98 118.34 97.8987 118.092 97.7528C117.887 97.6318 117.773 97.46 117.743 97.1409C117.71 96.7863 117.788 96.2837 117.995 95.5834C118.2 94.8923 118.514 94.0593 118.912 93.0598C119.076 92.6485 119.252 92.2113 119.44 91.7477C121.07 87.7176 123.511 81.6834 125.176 73.1353C126.377 69.8844 127.114 67.3175 127.637 65.2973C127.835 64.5346 128 63.859 128.147 63.2576C128.396 62.2411 128.592 61.4362 128.807 60.7803C129.142 59.7534 129.477 59.2451 129.991 58.9486C130.54 58.6315 131.383 58.5 132.894 58.5C134.321 58.5 135.409 58.8373 136.253 59.465C137.102 60.0955 137.754 61.0548 138.242 62.384C139.229 65.0676 139.501 69.1062 139.501 74.5Z" stroke="white"/>
<path d="M14.8097 73.0468L14.8075 73.0235V73C14.8075 67.6224 14.263 63.9837 13.0318 61.6986C12.4242 60.571 11.6539 59.7823 10.6996 59.2698C9.74022 58.7546 8.56014 58.5 7.10726 58.5C5.67929 58.5 4.59194 58.8373 3.74736 59.465C2.89894 60.0955 2.24721 61.0548 1.75835 62.384C0.77141 65.0676 0.500006 69.1062 0.500006 74.5C0.500006 79.6979 3.76488 85.33 7.85062 89.697C9.8849 91.8713 12.1005 93.7074 14.1699 94.9963C16.2151 96.2701 18.0582 96.9721 19.4189 96.9992C19.8811 96.835 20.1372 96.6475 20.281 96.4554C20.4262 96.2612 20.5031 96 20.4821 95.5962C20.4606 95.1823 20.3381 94.66 20.1215 93.9884C19.9082 93.327 19.6156 92.5561 19.2688 91.6419L19.2585 91.6149C17.8539 87.9126 15.6623 82.1133 14.8097 73.0468Z" stroke="white"/>
<path d="M126 51.5014C126 76.1336 119.559 97.6585 109.329 113.01C99.0959 128.365 85.1086 137.501 70.0002 137.501C54.8879 137.501 40.5244 128.361 29.9172 113.003C19.3134 97.6507 12.5002 76.1277 12.5002 51.5014C12.5002 26.8907 19.9225 14.2196 31.0108 7.6447C42.1676 1.02912 57.1506 0.5 72.5002 0.5C87.8592 0.5 101.192 1.03312 110.71 7.62566C120.176 14.1818 126 26.8454 126 51.5014Z" stroke="white"/>
</svg>
