<svg width="36" height="36" viewBox="0 0 36 36" fill="none" xmlns="http://www.w3.org/2000/svg">
<path d="M9 1.125C9 0.50368 8.49632 0 7.875 0C7.25368 0 6.75 0.50368 6.75 1.125V2.25H4.5C2.01472 2.25 0 4.26472 0 6.75V9H36V6.75C36 4.26472 33.9853 2.25 31.5 2.25H29.25V1.125C29.25 0.50368 28.7463 0 28.125 0C27.5037 0 27 0.50368 27 1.125V2.25H9V1.125Z" fill="#F1F2F6"/>
<path d="M36 31.5V11.25H0V31.5C0 33.9853 2.01472 36 4.5 36H31.5C33.9853 36 36 33.9853 36 31.5ZM21.375 15.75H23.625C24.2463 15.75 24.75 16.2537 24.75 16.875V19.125C24.75 19.7463 24.2463 20.25 23.625 20.25H21.375C20.7537 20.25 20.25 19.7463 20.25 19.125V16.875C20.25 16.2537 20.7537 15.75 21.375 15.75ZM28.125 15.75H30.375C30.9963 15.75 31.5 16.2537 31.5 16.875V19.125C31.5 19.7463 30.9963 20.25 30.375 20.25H28.125C27.5037 20.25 27 19.7463 27 19.125V16.875C27 16.2537 27.5037 15.75 28.125 15.75ZM4.5 23.625C4.5 23.0037 5.00368 22.5 5.625 22.5H7.875C8.49632 22.5 9 23.0037 9 23.625V25.875C9 26.4963 8.49632 27 7.875 27H5.625C5.00368 27 4.5 26.4963 4.5 25.875V23.625ZM12.375 22.5H14.625C15.2463 22.5 15.75 23.0037 15.75 23.625V25.875C15.75 26.4963 15.2463 27 14.625 27H12.375C11.7537 27 11.25 26.4963 11.25 25.875V23.625C11.25 23.0037 11.7537 22.5 12.375 22.5Z" fill="#F1F2F6"/>
</svg>
