<svg width="36" height="36" viewBox="0 0 36 36" fill="none" xmlns="http://www.w3.org/2000/svg">
<path d="M13.5 17.7333L10.7227 20.5518C9.83672 20.2022 8.88047 20.0166 7.875 20.0166C3.52266 20.0166 0 23.5915 0 28.0083C0 32.4252 3.52266 36 7.875 36C12.2273 36 15.75 32.4252 15.75 28.0083C15.75 26.988 15.5602 26.0175 15.2227 25.1185L18 22.3L20.7773 25.1185C20.4328 26.0175 20.25 26.988 20.25 28.0083C20.25 32.4252 23.7727 36 28.125 36C32.4773 36 36 32.4252 36 28.0083C36 23.5915 32.4773 20.0166 28.125 20.0166C27.1195 20.0166 26.1633 20.2093 25.2773 20.5518L5.4 0.379959C4.90078 -0.126656 4.09922 -0.126656 3.6 0.379959C1.61016 2.39928 1.61016 5.66731 3.6 7.68664L13.5 17.7333ZM24.0891 16.1207L32.4 7.68664C34.3898 5.66731 34.3898 2.39928 32.4 0.379959C31.9008 -0.126656 31.0992 -0.126656 30.6 0.379959L19.5891 11.554L24.0891 16.1207ZM7.875 31.4333C7.43179 31.4333 6.99292 31.3447 6.58344 31.1726C6.17397 31.0005 5.80191 30.7482 5.48851 30.4302C5.17512 30.1121 4.92652 29.7346 4.75691 29.319C4.5873 28.9035 4.5 28.4581 4.5 28.0083C4.5 27.5585 4.5873 27.1132 4.75691 26.6976C4.92652 26.2821 5.17512 25.9045 5.48851 25.5865C5.80191 25.2684 6.17397 25.0162 6.58344 24.844C6.99292 24.6719 7.43179 24.5833 7.875 24.5833C8.31821 24.5833 8.75708 24.6719 9.16656 24.844C9.57603 25.0162 9.94809 25.2684 10.2615 25.5865C10.5749 25.9045 10.8235 26.2821 10.9931 26.6976C11.1627 27.1132 11.25 27.5585 11.25 28.0083C11.25 28.4581 11.1627 28.9035 10.9931 29.319C10.8235 29.7346 10.5749 30.1121 10.2615 30.4302C9.94809 30.7482 9.57603 31.0005 9.16656 31.1726C8.75708 31.3447 8.31821 31.4333 7.875 31.4333ZM24.75 28.0083C24.75 27.5585 24.8373 27.1132 25.0069 26.6976C25.1765 26.2821 25.4251 25.9045 25.7385 25.5865C26.0519 25.2684 26.424 25.0162 26.8334 24.844C27.2429 24.6719 27.6818 24.5833 28.125 24.5833C28.5682 24.5833 29.0071 24.6719 29.4166 24.844C29.826 25.0162 30.1981 25.2684 30.5115 25.5865C30.8249 25.9045 31.0735 26.2821 31.2431 26.6976C31.4127 27.1132 31.5 27.5585 31.5 28.0083C31.5 28.4581 31.4127 28.9035 31.2431 29.319C31.0735 29.7346 30.8249 30.1121 30.5115 30.4302C30.1981 30.7482 29.826 31.0005 29.4166 31.1726C29.0071 31.3447 28.5682 31.4333 28.125 31.4333C27.6818 31.4333 27.2429 31.3447 26.8334 31.1726C26.424 31.0005 26.0519 30.7482 25.7385 30.4302C25.4251 30.1121 25.1765 29.7346 25.0069 29.319C24.8373 28.9035 24.75 28.4581 24.75 28.0083Z" fill="white"/>
</svg>
