<svg width="100" height="100" viewBox="0 0 100 100" fill="none" xmlns="http://www.w3.org/2000/svg">
<path d="M62.5 50.7408L70.2148 42.9116C72.6758 43.8829 75.332 44.3982 78.125 44.3982C90.2148 44.3982 100 34.4681 100 22.1991C100 9.93013 90.2148 0 78.125 0C66.0352 0 56.25 9.93013 56.25 22.1991C56.25 25.0334 56.7773 27.7291 57.7148 30.2264L50 38.0556L42.2852 30.2264C43.2422 27.7291 43.75 25.0334 43.75 22.1991C43.75 9.93013 33.9648 0 21.875 0C9.78516 0 0 9.93013 0 22.1991C0 34.4681 9.78516 44.3982 21.875 44.3982C24.668 44.3982 27.3242 43.863 29.7852 42.9116L85 98.9445C86.3867 100.352 88.6133 100.352 90 98.9445C95.5273 93.3353 95.5273 84.2575 90 78.6482L62.5 50.7408ZM33.0859 55.2203L10 78.6482C4.47266 84.2575 4.47266 93.3353 10 98.9445C11.3867 100.352 13.6133 100.352 15 98.9445L45.5859 67.9055L33.0859 55.2203ZM78.125 12.6852C79.3561 12.6852 80.5752 12.9313 81.7127 13.4094C82.8501 13.8875 83.8836 14.5883 84.7541 15.4718C85.6247 16.3552 86.3152 17.404 86.7864 18.5583C87.2575 19.7126 87.5 20.9497 87.5 22.1991C87.5 23.4485 87.2575 24.6856 86.7864 25.8399C86.3152 26.9942 85.6247 28.043 84.7541 28.9264C83.8836 29.8099 82.8501 30.5107 81.7127 30.9888C80.5752 31.4669 79.3561 31.713 78.125 31.713C76.8939 31.713 75.6748 31.4669 74.5373 30.9888C73.3999 30.5107 72.3664 29.8099 71.4959 28.9264C70.6253 28.043 69.9348 26.9942 69.4636 25.8399C68.9925 24.6856 68.75 23.4485 68.75 22.1991C68.75 20.9497 68.9925 19.7126 69.4636 18.5583C69.9348 17.404 70.6253 16.3552 71.4959 15.4718C72.3664 14.5883 73.3999 13.8875 74.5373 13.4094C75.6748 12.9313 76.8939 12.6852 78.125 12.6852ZM31.25 22.1991C31.25 23.4485 31.0075 24.6856 30.5364 25.8399C30.0652 26.9942 29.3747 28.043 28.5041 28.9264C27.6336 29.8099 26.6001 30.5107 25.4627 30.9888C24.3252 31.4669 23.1061 31.713 21.875 31.713C20.6439 31.713 19.4248 31.4669 18.2873 30.9888C17.1499 30.5107 16.1164 29.8099 15.2459 28.9264C14.3753 28.043 13.6848 26.9942 13.2136 25.8399C12.7425 24.6856 12.5 23.4485 12.5 22.1991C12.5 20.9497 12.7425 19.7126 13.2136 18.5583C13.6848 17.404 14.3753 16.3552 15.2459 15.4718C16.1164 14.5883 17.1499 13.8875 18.2873 13.4094C19.4248 12.9313 20.6439 12.6852 21.875 12.6852C23.1061 12.6852 24.3252 12.9313 25.4627 13.4094C26.6001 13.8875 27.6336 14.5883 28.5041 15.4718C29.3747 16.3552 30.0652 17.404 30.5364 18.5583C31.0075 19.7126 31.25 20.9497 31.25 22.1991Z" fill="#F1F2F6"/>
</svg>
